<svg xmlns="http://www.w3.org/2000/svg" viewBox="0 0 66.53 80.28">
  <path d="M54.41 32.23a21 21 0 00-5.47-13.18l8.58-8.58a33.18 33.18 0 019 21.76z" style="fill:#e9a4ae"/>
  <path d="M47.48 17.59a21 21 0 00-13.18-5.47V0a33.13 33.13 0 0121.76 9z" style="fill:#4d81c2"/>
  <path d="M10.47 9a33.18 33.18 0 0121.76-9v12.12A21.11 21.11 0 0019 17.59z" style="fill:#99b7dc"/>
  <path d="M17.59 19a21.08 21.08 0 00-5.47 13.19H0a33.18 33.18 0 019-21.72z" style="fill:#d86172"/>
  <path d="M22.68 22.69a15 15 0 110 21.16 15 15 0 010-21.16z" style="fill:#c71c35"/>
  <path d="M12.09 59.16V34.3H0a33.14 33.14 0 009.73 22.5l.19.19zM66.53 34.3H54.4a21.16 21.16 0 01-36.1 13.93l-.09-.09v17.14l15 15L56.61 57l.2-.19a33.19 33.19 0 009.72-22.51z" style="fill:#004aa8"/>
</svg>