<svg xmlns="http://www.w3.org/2000/svg" viewBox="0 0 350.02 80.33">
  <defs>
    <style>
      .cls-1 {
        fill: #573a7b;
      }

      .cls-2 {
        fill: #e9a4ae;
      }

      .cls-2, .cls-3, .cls-4, .cls-5, .cls-6, .cls-7 {
        fill-rule: evenodd;
      }

      .cls-3 {
        fill: #4d81c2;
      }

      .cls-4 {
        fill: #99b7dc;
      }

      .cls-5 {
        fill: #d86172;
      }

      .cls-6 {
        fill: #c71c35;
      }

      .cls-7 {
        fill: #004aa8;
      }

      .cls-8 {
        fill: #5b5b5b;
      }
    </style>
  </defs>
  <g id="Layer_2" data-name="Layer 2">
    <g id="Layer_1-2" data-name="Layer 1">
      <g>
        <path class="cls-1" d="M86.13,13H97.56a22.76,22.76,0,0,1,4.72.48,11.68,11.68,0,0,1,4,1.61,8.16,8.16,0,0,1,2.76,3,9.75,9.75,0,0,1,1,4.72A10.52,10.52,0,0,1,109,28a8,8,0,0,1-3,3.05,12.55,12.55,0,0,1-4.35,1.46,33.14,33.14,0,0,1-5.16.38H92.18V47H86.13Zm9.7,14.74c.86,0,1.76,0,2.69-.1a8.18,8.18,0,0,0,2.57-.57A4.61,4.61,0,0,0,103,25.64a4.35,4.35,0,0,0,.74-2.69,4.21,4.21,0,0,0-.67-2.52A4.57,4.57,0,0,0,101.35,19,7.28,7.28,0,0,0,99,18.34a24.32,24.32,0,0,0-2.5-.14H92.18v9.55Z"/>
        <path class="cls-1" d="M113.83,10.71h5.76V47h-5.76Z"/>
        <path class="cls-1" d="M139.41,43.83h-.14a7.48,7.48,0,0,1-3.17,2.86,10,10,0,0,1-4.22.88,11.16,11.16,0,0,1-3.1-.43,8.6,8.6,0,0,1-2.69-1.29,6.77,6.77,0,0,1-1.89-2.16,6.17,6.17,0,0,1-.72-3,6.93,6.93,0,0,1,.67-3.19,6.59,6.59,0,0,1,1.8-2.21,9,9,0,0,1,2.62-1.41,17.51,17.51,0,0,1,3.09-.8,29.14,29.14,0,0,1,3.24-.33c1.09,0,2.11-.07,3.07-.07h1.44V32a3.72,3.72,0,0,0-1.49-3.24,6.27,6.27,0,0,0-3.79-1.08,8.91,8.91,0,0,0-3.4.65A8.69,8.69,0,0,0,128,30.1l-3-3a11.14,11.14,0,0,1,4.49-2.83,16.42,16.42,0,0,1,5.31-.87,13.68,13.68,0,0,1,4.13.55,9.18,9.18,0,0,1,2.78,1.42,6.38,6.38,0,0,1,1.7,2,9.37,9.37,0,0,1,.87,2.28,12.84,12.84,0,0,1,.31,2.23c0,.72,0,1.36,0,1.9V47h-5.19Zm-.33-7.15h-1.2c-.8,0-1.7,0-2.69.09a14.59,14.59,0,0,0-2.81.46,6.33,6.33,0,0,0-2.23,1.06,2.29,2.29,0,0,0-.91,1.94,2.47,2.47,0,0,0,.36,1.37,3.17,3.17,0,0,0,.93.93,4.1,4.1,0,0,0,1.3.56,6.42,6.42,0,0,0,1.44.16,6,6,0,0,0,4.39-1.41A5.25,5.25,0,0,0,139.08,38Z"/>
        <path class="cls-1" d="M149.59,24h5.47v3.69h.1a8.06,8.06,0,0,1,2.49-3,7.44,7.44,0,0,1,4.56-1.27,9,9,0,0,1,3.91.77,7.33,7.33,0,0,1,2.62,2,7.66,7.66,0,0,1,1.44,2.88,13.09,13.09,0,0,1,.43,3.4V47h-5.76V35.33q0-1-.09-2.13a7.93,7.93,0,0,0-.51-2.21A4.11,4.11,0,0,0,163,29.26a3.67,3.67,0,0,0-2.35-.69,5.54,5.54,0,0,0-2.43.48,4.72,4.72,0,0,0-1.63,1.29,5.21,5.21,0,0,0-.93,1.87,8.07,8.07,0,0,0-.29,2.21V47h-5.76Z"/>
        <path class="cls-1" d="M193.12,20.31a5.54,5.54,0,0,0-2.56-2,9,9,0,0,0-3.39-.65,8.63,8.63,0,0,0-2,.24,5.53,5.53,0,0,0-1.77.77A4,4,0,0,0,182.08,20a3.94,3.94,0,0,0-.48,2,3.12,3.12,0,0,0,1.2,2.64,11.58,11.58,0,0,0,3,1.58c1.18.45,2.48.88,3.89,1.3a15.89,15.89,0,0,1,3.89,1.73,9.54,9.54,0,0,1,3,2.93,8.67,8.67,0,0,1,1.2,4.84,10.55,10.55,0,0,1-1,4.78A9.59,9.59,0,0,1,194,45.17a11.59,11.59,0,0,1-4,2,16.48,16.48,0,0,1-4.75.67,18,18,0,0,1-6.1-1,11.79,11.79,0,0,1-5-3.56l4.56-4.41a7.62,7.62,0,0,0,2.91,2.61,8.09,8.09,0,0,0,5.93.65,6.67,6.67,0,0,0,1.92-.86,4.54,4.54,0,0,0,1.39-1.47,3.92,3.92,0,0,0,.53-2,3.57,3.57,0,0,0-1.2-2.88,10.63,10.63,0,0,0-3-1.7c-1.18-.46-2.48-.9-3.89-1.32a16.21,16.21,0,0,1-3.89-1.7,9.48,9.48,0,0,1-3-2.88,8.59,8.59,0,0,1-1.2-4.83,9.16,9.16,0,0,1,1.08-4.56,9.86,9.86,0,0,1,2.83-3.19,12.38,12.38,0,0,1,4-1.9,17.43,17.43,0,0,1,4.61-.62A16.59,16.59,0,0,1,193,13a12.09,12.09,0,0,1,4.54,2.68Z"/>
        <path class="cls-1" d="M216.36,30.87a9.54,9.54,0,0,0-2.12-1.68,4.44,4.44,0,0,0-2.25-.62,6.55,6.55,0,0,0-5,2.11,6.4,6.4,0,0,0-1.34,2.21,7.52,7.52,0,0,0,0,5.18,6.48,6.48,0,0,0,3.48,3.74,6.57,6.57,0,0,0,2.83.58,5.64,5.64,0,0,0,2.49-.55,5.45,5.45,0,0,0,2-1.61l3.84,4.13a9.08,9.08,0,0,1-2,1.49,13.39,13.39,0,0,1-2.28,1,14.33,14.33,0,0,1-2.21.56,11.91,11.91,0,0,1-1.82.16,13.77,13.77,0,0,1-4.9-.86,11.52,11.52,0,0,1-6.65-6.26,13.09,13.09,0,0,1,0-9.94,11.43,11.43,0,0,1,6.65-6.26,13.77,13.77,0,0,1,4.9-.87,12.55,12.55,0,0,1,4.44.84,10.05,10.05,0,0,1,3.91,2.67Z"/>
        <path class="cls-1" d="M220.92,35.48a12.11,12.11,0,0,1,1-5,11.36,11.36,0,0,1,6.65-6.26,14.21,14.21,0,0,1,9.79,0A11.43,11.43,0,0,1,245,30.51a13.09,13.09,0,0,1,0,9.94,11.52,11.52,0,0,1-6.65,6.26,14.36,14.36,0,0,1-9.79,0,11.44,11.44,0,0,1-6.65-6.26A12.15,12.15,0,0,1,220.92,35.48Zm5.76,0a7.59,7.59,0,0,0,.45,2.59,6.52,6.52,0,0,0,1.35,2.21,6.81,6.81,0,0,0,9.93,0,6.68,6.68,0,0,0,1.35-2.21,7.68,7.68,0,0,0,0-5.18,6.58,6.58,0,0,0-1.35-2.21,6.78,6.78,0,0,0-9.93,0,6.42,6.42,0,0,0-1.35,2.21A7.55,7.55,0,0,0,226.68,35.48Z"/>
        <path class="cls-1" d="M249.19,24H255v3.65H255a7.14,7.14,0,0,1,2.74-3.12,7.52,7.52,0,0,1,4.08-1.11,5.07,5.07,0,0,1,1,.1,10.17,10.17,0,0,1,1,.24v5.57c-.48-.13-.95-.24-1.41-.32a8.1,8.1,0,0,0-1.37-.12,6.12,6.12,0,0,0-3.24.75A5.76,5.76,0,0,0,256,31.3a5.65,5.65,0,0,0-.87,1.92,7.43,7.43,0,0,0-.21,1.44V47h-5.76Z"/>
        <path class="cls-1" d="M270.79,37.49a5.86,5.86,0,0,0,2,4A6.32,6.32,0,0,0,277,43a6.86,6.86,0,0,0,3.62-.89,10.13,10.13,0,0,0,2.57-2.23L287.3,43a11.86,11.86,0,0,1-4.51,3.55,13.4,13.4,0,0,1-5.24,1,13.71,13.71,0,0,1-4.89-.86A11.44,11.44,0,0,1,266,40.45a12.15,12.15,0,0,1-1-5,12.11,12.11,0,0,1,1-5,11.36,11.36,0,0,1,6.65-6.26,13.72,13.72,0,0,1,4.89-.87,11.24,11.24,0,0,1,4.4.84,9.39,9.39,0,0,1,3.4,2.43,11.09,11.09,0,0,1,2.21,3.91,16.51,16.51,0,0,1,.79,5.35v1.58Zm11.8-4.32a5.41,5.41,0,0,0-1.58-4,5.92,5.92,0,0,0-4.27-1.47,5.62,5.62,0,0,0-4.11,1.49,6.65,6.65,0,0,0-1.84,4Z"/>
      </g>
      <g>
        <path class="cls-2" d="M54.41,32.23a21,21,0,0,0-5.47-13.18l8.58-8.58a33.18,33.18,0,0,1,9,21.76Z"/>
        <path class="cls-3" d="M47.48,17.59A21,21,0,0,0,34.3,12.12V0A33.13,33.13,0,0,1,56.06,9Z"/>
        <path class="cls-4" d="M10.47,9A33.18,33.18,0,0,1,32.23,0V12.12A21.11,21.11,0,0,0,19,17.59Z"/>
        <path class="cls-5" d="M17.59,19a21.08,21.08,0,0,0-5.47,13.19H0A33.18,33.18,0,0,1,9,10.47Z"/>
        <path class="cls-6" d="M22.68,22.69a15,15,0,1,1,0,21.16A15,15,0,0,1,22.68,22.69Z"/>
        <g>
          <path class="cls-7" d="M12.09,59.16V34.3H0A33.14,33.14,0,0,0,9.73,56.8l.19.19h0Z"/>
          <path class="cls-7" d="M66.53,34.3H54.4A21.16,21.16,0,0,1,18.3,48.23l-.09-.09V65.28l15,15L56.61,57h0l.2-.19A33.19,33.19,0,0,0,66.53,34.3Z"/>
        </g>
      </g>
      <g>
        <path class="cls-8" d="M90.17,59.4h1l3.63,8.5H93.51l-.85-2.1h-4l-.84,2.1H86.43Zm2.07,5.39-1.59-3.9h0L89,64.79Z"/>
        <path class="cls-8" d="M100.49,59.4h3a3.64,3.64,0,0,1,1.34.22,2.3,2.3,0,0,1,.84.57,1.94,1.94,0,0,1,.42.77,3,3,0,0,1,.12.82,3,3,0,0,1-.12.82,2,2,0,0,1-.42.77,2.29,2.29,0,0,1-.84.56,3.44,3.44,0,0,1-1.34.22h-1.84V67.9h-1.15Zm1.15,3.75h1.52a3.68,3.68,0,0,0,.66-.06,1.59,1.59,0,0,0,.59-.2,1,1,0,0,0,.41-.41,1.61,1.61,0,0,0,0-1.4,1.1,1.1,0,0,0-.41-.42,2,2,0,0,0-.59-.2,4.89,4.89,0,0,0-.66-.05h-1.52Z"/>
        <path class="cls-8" d="M108.21,59.4h3a3.64,3.64,0,0,1,1.34.22,2.26,2.26,0,0,1,.83.57,1.84,1.84,0,0,1,.43.77,3,3,0,0,1,.12.82,2.29,2.29,0,0,1-.14.78,2.2,2.2,0,0,1-.42.69,2.38,2.38,0,0,1-1.53.77l2.41,3.88H112.8l-2.16-3.75h-1.28V67.9h-1.15Zm1.15,3.75h1.51a3.71,3.71,0,0,0,.67-.06,1.65,1.65,0,0,0,.59-.2,1,1,0,0,0,.41-.41,1.61,1.61,0,0,0,0-1.4,1.1,1.1,0,0,0-.41-.42,2.16,2.16,0,0,0-.59-.2,4.91,4.91,0,0,0-.67-.05h-1.51Z"/>
        <path class="cls-8" d="M120,68.11a4.57,4.57,0,0,1-1.79-.34,4.11,4.11,0,0,1-1.4-.94,4.44,4.44,0,0,1-.91-1.42,4.86,4.86,0,0,1,0-3.52,4.44,4.44,0,0,1,.91-1.42,4.26,4.26,0,0,1,1.4-.94,4.88,4.88,0,0,1,3.58,0,4.26,4.26,0,0,1,1.4.94,4.44,4.44,0,0,1,.91,1.42,4.86,4.86,0,0,1,0,3.52,4.44,4.44,0,0,1-.91,1.42,4.11,4.11,0,0,1-1.4.94A4.57,4.57,0,0,1,120,68.11ZM120,67a3.11,3.11,0,0,0,1.32-.27,3.2,3.2,0,0,0,1-.72A3.35,3.35,0,0,0,123,65a4,4,0,0,0,0-2.62,3.35,3.35,0,0,0-.65-1.08,3.2,3.2,0,0,0-1-.72,3.36,3.36,0,0,0-2.64,0,3.2,3.2,0,0,0-1,.72,3.35,3.35,0,0,0-.65,1.08,4,4,0,0,0,0,2.62,3.35,3.35,0,0,0,.65,1.08,3.2,3.2,0,0,0,1,.72A3.11,3.11,0,0,0,120,67Z"/>
        <path class="cls-8" d="M129.38,59.4h1.15v6.07a3.1,3.1,0,0,1-.25,1.32,2.24,2.24,0,0,1-.63.8,2.39,2.39,0,0,1-.81.41,3,3,0,0,1-.8.11,2.42,2.42,0,0,1-1.51-.46,2.09,2.09,0,0,1-.79-1.39l1.13-.26a1.35,1.35,0,0,0,.39.76A1.12,1.12,0,0,0,128,67a1.26,1.26,0,0,0,.69-.16,1.15,1.15,0,0,0,.41-.44,2,2,0,0,0,.19-.62,5.52,5.52,0,0,0,0-.71Z"/>
        <path class="cls-8" d="M133.11,59.4h5.48v1.08h-4.33V63h4v1.08h-4v2.73h4.55V67.9h-5.7Z"/>
        <path class="cls-8" d="M147,61.24a2.39,2.39,0,0,0-.91-.72,2.7,2.7,0,0,0-1.14-.25,3.05,3.05,0,0,0-1.3.27,2.9,2.9,0,0,0-1,.73,3.37,3.37,0,0,0-.65,1.1,4,4,0,0,0-.22,1.35A3.8,3.8,0,0,0,142,65a3.29,3.29,0,0,0,.62,1.06,3,3,0,0,0,2.33,1,2.57,2.57,0,0,0,2.22-1.14l1,.74-.34.38a3.66,3.66,0,0,1-.64.49,5,5,0,0,1-1,.43,4.61,4.61,0,0,1-3.11-.2,4.4,4.4,0,0,1-1.38-1,4.27,4.27,0,0,1-.87-1.41,4.4,4.4,0,0,1-.3-1.59,5.16,5.16,0,0,1,.32-1.82,4.47,4.47,0,0,1,.91-1.44,4.16,4.16,0,0,1,1.4-.94,4.73,4.73,0,0,1,1.8-.33,4.52,4.52,0,0,1,1.65.32,3.06,3.06,0,0,1,1.32,1Z"/>
        <path class="cls-8" d="M151.86,60.48h-2.73V59.4h6.62v1.08H153V67.9h-1.15Z"/>
        <path class="cls-8" d="M165.41,68.11a4.57,4.57,0,0,1-1.79-.34,4.11,4.11,0,0,1-1.4-.94,4.44,4.44,0,0,1-.91-1.42,4.86,4.86,0,0,1,0-3.52,4.44,4.44,0,0,1,.91-1.42,4.26,4.26,0,0,1,1.4-.94,4.88,4.88,0,0,1,3.58,0,4.15,4.15,0,0,1,2.31,2.36,4.86,4.86,0,0,1,0,3.52,4.27,4.27,0,0,1-.91,1.42,4.11,4.11,0,0,1-1.4.94A4.57,4.57,0,0,1,165.41,68.11Zm0-1.08a3.11,3.11,0,0,0,1.32-.27,3.07,3.07,0,0,0,1.66-1.8,4,4,0,0,0,0-2.62,3.07,3.07,0,0,0-1.66-1.8,3.36,3.36,0,0,0-2.64,0,3.2,3.2,0,0,0-1,.72,3.35,3.35,0,0,0-.65,1.08,4,4,0,0,0,0,2.62,3.35,3.35,0,0,0,.65,1.08,3.2,3.2,0,0,0,1,.72A3.11,3.11,0,0,0,165.41,67Z"/>
        <path class="cls-8" d="M172.09,59.4h5.34v1.08h-4.18v2.67h3.9v1.08h-3.9V67.9h-1.16Z"/>
        <path class="cls-8" d="M189.43,61.24a2.39,2.39,0,0,0-.91-.72,2.7,2.7,0,0,0-1.14-.25,3,3,0,0,0-2.3,1,3.53,3.53,0,0,0-.64,1.1,4,4,0,0,0-.23,1.35,3.81,3.81,0,0,0,.22,1.27,3.12,3.12,0,0,0,.62,1.06,3,3,0,0,0,2.33,1,2.57,2.57,0,0,0,2.22-1.14l1,.74a4.92,4.92,0,0,1-.33.38,3.66,3.66,0,0,1-.64.49,5,5,0,0,1-.95.43,4.61,4.61,0,0,1-3.11-.2,4.4,4.4,0,0,1-1.38-1,4.27,4.27,0,0,1-.87-1.41,4.4,4.4,0,0,1-.3-1.59,5.16,5.16,0,0,1,.32-1.82,4.47,4.47,0,0,1,.91-1.44,4.16,4.16,0,0,1,1.4-.94,4.73,4.73,0,0,1,1.8-.33,4.52,4.52,0,0,1,1.65.32,3.06,3.06,0,0,1,1.32,1Z"/>
        <path class="cls-8" d="M195.23,59.4h1l3.64,8.5h-1.34l-.86-2.1h-4l-.84,2.1h-1.34Zm2.06,5.39-1.58-3.9h0l-1.61,3.9Z"/>
        <path class="cls-8" d="M201.53,59.4h1.72l2.7,6.43h0l2.68-6.43h1.72v8.5h-1.16v-7h0l-2.87,7h-.77l-2.86-7h0v7h-1.15Z"/>
        <path class="cls-8" d="M213.09,59.4h3a3.66,3.66,0,0,1,1.35.22,2.26,2.26,0,0,1,.83.57,1.84,1.84,0,0,1,.43.77,3,3,0,0,1,.12.82,3,3,0,0,1-.12.82,1.91,1.91,0,0,1-.43.77,2.25,2.25,0,0,1-.83.56,3.46,3.46,0,0,1-1.35.22h-1.83V67.9h-1.15Zm1.15,3.75h1.51a3.79,3.79,0,0,0,.67-.06,1.54,1.54,0,0,0,.58-.2,1,1,0,0,0,.42-.41,1.71,1.71,0,0,0,0-1.4,1.06,1.06,0,0,0-.42-.42,2,2,0,0,0-.58-.2,5,5,0,0,0-.67-.05h-1.51Z"/>
        <path class="cls-8" d="M222.58,59.4h1l3.64,8.5h-1.35l-.85-2.1h-4l-.84,2.1h-1.35Zm2.06,5.39-1.58-3.9h0l-1.6,3.9Z"/>
        <path class="cls-8" d="M229,59.4h1.15v8.5H229Z"/>
        <path class="cls-8" d="M240.13,63.15v4.18a3.8,3.8,0,0,1-.7.34,7.27,7.27,0,0,1-.83.25c-.28.06-.57.11-.86.15a8,8,0,0,1-.82,0,5.11,5.11,0,0,1-1.93-.35,4.43,4.43,0,0,1-1.43-1,4.24,4.24,0,0,1-.88-1.42,4.86,4.86,0,0,1,0-3.47A4.15,4.15,0,0,1,235,59.53a4.53,4.53,0,0,1,1.79-.34,5.24,5.24,0,0,1,1.92.29,3.75,3.75,0,0,1,1.25.81l-.82.88a3,3,0,0,0-1.12-.71,3.86,3.86,0,0,0-1.23-.19,3.11,3.11,0,0,0-1.32.27,3.07,3.07,0,0,0-1.66,1.8,3.8,3.8,0,0,0-.23,1.31,3.48,3.48,0,0,0,.26,1.34,3.23,3.23,0,0,0,.69,1.07,3.33,3.33,0,0,0,1.05.72,3.27,3.27,0,0,0,1.3.25,5.38,5.38,0,0,0,1.16-.11,3.36,3.36,0,0,0,.93-.33V64.23H237.1V63.15Z"/>
        <path class="cls-8" d="M242.83,59.4h1.52l4.68,7h0v-7h1.15v8.5h-1.46l-4.73-7h0v7h-1.16Z"/>
        <path class="cls-8" d="M256.92,59.4h1.15v7.42H262V67.9h-5.05Z"/>
        <path class="cls-8" d="M263.75,59.4h5.48v1.08H264.9V63h4v1.08h-4v2.73h4.55V67.9h-5.7Z"/>
        <path class="cls-8" d="M278.92,63.15v4.18a4.25,4.25,0,0,1-.71.34,7.1,7.1,0,0,1-.82.25c-.29.06-.57.11-.87.15a7.88,7.88,0,0,1-.82,0,5,5,0,0,1-1.92-.35,4.33,4.33,0,0,1-1.43-1,4.11,4.11,0,0,1-.89-1.42,4.89,4.89,0,0,1-.31-1.71,4.63,4.63,0,0,1,.33-1.76,4.3,4.3,0,0,1,.92-1.42,4.11,4.11,0,0,1,1.39-.94,4.57,4.57,0,0,1,1.79-.34,5.17,5.17,0,0,1,1.92.29,3.65,3.65,0,0,1,1.25.81l-.82.88a3.08,3.08,0,0,0-1.11-.71,3.92,3.92,0,0,0-1.24-.19,3.11,3.11,0,0,0-1.32.27,3.2,3.2,0,0,0-1,.72,3.16,3.16,0,0,0-.64,1.08,3.58,3.58,0,0,0-.23,1.31,3.47,3.47,0,0,0,.25,1.34,3.26,3.26,0,0,0,.7,1.07,3.18,3.18,0,0,0,1,.72,3.32,3.32,0,0,0,1.31.25,5.44,5.44,0,0,0,1.16-.11,3.61,3.61,0,0,0,.93-.33V64.23h-1.89V63.15Z"/>
        <path class="cls-8" d="M284.28,59.4h1.05L289,67.9h-1.34l-.85-2.1h-4l-.84,2.1h-1.34Zm2.07,5.39-1.59-3.9h0l-1.61,3.9Z"/>
        <path class="cls-8" d="M290.67,59.4h1.15v7.42h3.9V67.9h-5.05Z"/>
        <path class="cls-8" d="M307.35,61.24a2.43,2.43,0,0,0-.92-.72,2.63,2.63,0,0,0-1.14-.25,3.05,3.05,0,0,0-1.3.27,2.9,2.9,0,0,0-1,.73,3.56,3.56,0,0,0-.65,1.1,4,4,0,0,0-.22,1.35,3.8,3.8,0,0,0,.21,1.27,3.14,3.14,0,0,0,.63,1.06,3,3,0,0,0,1,.72,3.16,3.16,0,0,0,1.33.26,2.57,2.57,0,0,0,2.22-1.14l1,.74-.34.38a3.66,3.66,0,0,1-.64.49,5,5,0,0,1-.95.43,4.61,4.61,0,0,1-3.11-.2,4.4,4.4,0,0,1-1.38-1,4.27,4.27,0,0,1-.87-1.41,4.4,4.4,0,0,1-.3-1.59,5,5,0,0,1,.33-1.82,4.05,4.05,0,0,1,2.3-2.38,4.73,4.73,0,0,1,1.8-.33,4.52,4.52,0,0,1,1.65.32,3.15,3.15,0,0,1,1.33,1Z"/>
        <path class="cls-8" d="M310.48,59.4H316v1.08h-4.33V63h4v1.08h-4v2.73h4.55V67.9h-5.7Z"/>
        <path class="cls-8" d="M318.41,59.4h1.51l4.68,7h0v-7h1.15v8.5h-1.47l-4.72-7h0v7h-1.15Z"/>
        <path class="cls-8" d="M330.34,60.48H327.6V59.4h6.63v1.08h-2.74V67.9h-1.15Z"/>
        <path class="cls-8" d="M336.05,59.4h5.48v1.08H337.2V63h4v1.08h-4v2.73h4.55V67.9h-5.7Z"/>
        <path class="cls-8" d="M344,59.4h3a3.64,3.64,0,0,1,1.34.22,2.3,2.3,0,0,1,.84.57,1.94,1.94,0,0,1,.42.77,3,3,0,0,1,.12.82,2.07,2.07,0,0,1-.14.78,2.18,2.18,0,0,1-.41.69,2.38,2.38,0,0,1-1.53.77L350,67.9h-1.44l-2.16-3.75h-1.29V67.9H344Zm1.15,3.75h1.52a3.68,3.68,0,0,0,.66-.06,1.59,1.59,0,0,0,.59-.2,1,1,0,0,0,.41-.41,1.61,1.61,0,0,0,0-1.4,1.1,1.1,0,0,0-.41-.42,2,2,0,0,0-.59-.2,4.89,4.89,0,0,0-.66-.05h-1.52Z"/>
      </g>
    </g>
  </g>
</svg>
