<svg xmlns="http://www.w3.org/2000/svg" viewBox="0 0 346.14 80.33">
  <defs>
    <style>
      .cls-1 {
        fill: #573a7b;
      }

      .cls-2 {
        fill: #e9a4ae;
      }

      .cls-2, .cls-3, .cls-4, .cls-5, .cls-6, .cls-7 {
        fill-rule: evenodd;
      }

      .cls-3 {
        fill: #4d81c2;
      }

      .cls-4 {
        fill: #99b7dc;
      }

      .cls-5 {
        fill: #d86172;
      }

      .cls-6 {
        fill: #c71c35;
      }

      .cls-7 {
        fill: #004aa8;
      }

      .cls-8 {
        fill: #5b5b5b;
      }
    </style>
  </defs>
  <g id="Layer_2" data-name="Layer 2">
    <g id="Layer_1-2" data-name="Layer 1">
      <g>
        <path class="cls-1" d="M86.13,13H97.56a22.76,22.76,0,0,1,4.72.48,11.68,11.68,0,0,1,4,1.61,8.16,8.16,0,0,1,2.76,3,9.75,9.75,0,0,1,1,4.72A10.52,10.52,0,0,1,109,28a8,8,0,0,1-3,3.05,12.55,12.55,0,0,1-4.35,1.46,33.14,33.14,0,0,1-5.16.38H92.18V47H86.13Zm9.7,14.74c.86,0,1.76,0,2.69-.1a8.18,8.18,0,0,0,2.57-.57A4.61,4.61,0,0,0,103,25.64a4.35,4.35,0,0,0,.74-2.69,4.21,4.21,0,0,0-.67-2.52A4.57,4.57,0,0,0,101.35,19,7.28,7.28,0,0,0,99,18.34a24.32,24.32,0,0,0-2.5-.14H92.18v9.55Z"/>
        <path class="cls-1" d="M113.83,10.71h5.76V47h-5.76Z"/>
        <path class="cls-1" d="M139.41,43.83h-.14a7.48,7.48,0,0,1-3.17,2.86,10,10,0,0,1-4.22.88,11.16,11.16,0,0,1-3.1-.43,8.6,8.6,0,0,1-2.69-1.29,6.77,6.77,0,0,1-1.89-2.16,6.17,6.17,0,0,1-.72-3,6.93,6.93,0,0,1,.67-3.19,6.59,6.59,0,0,1,1.8-2.21,9,9,0,0,1,2.62-1.41,17.51,17.51,0,0,1,3.09-.8,29.14,29.14,0,0,1,3.24-.33c1.09,0,2.11-.07,3.07-.07h1.44V32a3.72,3.72,0,0,0-1.49-3.24,6.27,6.27,0,0,0-3.79-1.08,8.91,8.91,0,0,0-3.4.65A8.69,8.69,0,0,0,128,30.1l-3-3a11.14,11.14,0,0,1,4.49-2.83,16.42,16.42,0,0,1,5.31-.87,13.68,13.68,0,0,1,4.13.55,9.18,9.18,0,0,1,2.78,1.42,6.38,6.38,0,0,1,1.7,2,9.37,9.37,0,0,1,.87,2.28,12.84,12.84,0,0,1,.31,2.23c0,.72,0,1.36,0,1.9V47h-5.19Zm-.33-7.15h-1.2c-.8,0-1.7,0-2.69.09a14.59,14.59,0,0,0-2.81.46,6.33,6.33,0,0,0-2.23,1.06,2.29,2.29,0,0,0-.91,1.94,2.47,2.47,0,0,0,.36,1.37,3.17,3.17,0,0,0,.93.93,4.1,4.1,0,0,0,1.3.56,6.42,6.42,0,0,0,1.44.16,6,6,0,0,0,4.39-1.41A5.25,5.25,0,0,0,139.08,38Z"/>
        <path class="cls-1" d="M149.59,24h5.47v3.69h.1a8.06,8.06,0,0,1,2.49-3,7.44,7.44,0,0,1,4.56-1.27,9,9,0,0,1,3.91.77,7.33,7.33,0,0,1,2.62,2,7.66,7.66,0,0,1,1.44,2.88,13.09,13.09,0,0,1,.43,3.4V47h-5.76V35.33q0-1-.09-2.13a7.93,7.93,0,0,0-.51-2.21A4.11,4.11,0,0,0,163,29.26a3.67,3.67,0,0,0-2.35-.69,5.54,5.54,0,0,0-2.43.48,4.72,4.72,0,0,0-1.63,1.29,5.21,5.21,0,0,0-.93,1.87,8.07,8.07,0,0,0-.29,2.21V47h-5.76Z"/>
        <path class="cls-1" d="M193.12,20.31a5.54,5.54,0,0,0-2.56-2,9,9,0,0,0-3.39-.65,8.63,8.63,0,0,0-2,.24,5.53,5.53,0,0,0-1.77.77A4,4,0,0,0,182.08,20a3.94,3.94,0,0,0-.48,2,3.12,3.12,0,0,0,1.2,2.64,11.58,11.58,0,0,0,3,1.58c1.18.45,2.48.88,3.89,1.3a15.89,15.89,0,0,1,3.89,1.73,9.54,9.54,0,0,1,3,2.93,8.67,8.67,0,0,1,1.2,4.84,10.55,10.55,0,0,1-1,4.78A9.59,9.59,0,0,1,194,45.17a11.59,11.59,0,0,1-4,2,16.48,16.48,0,0,1-4.75.67,18,18,0,0,1-6.1-1,11.79,11.79,0,0,1-5-3.56l4.56-4.41a7.62,7.62,0,0,0,2.91,2.61,8.09,8.09,0,0,0,5.93.65,6.67,6.67,0,0,0,1.92-.86,4.54,4.54,0,0,0,1.39-1.47,3.92,3.92,0,0,0,.53-2,3.57,3.57,0,0,0-1.2-2.88,10.63,10.63,0,0,0-3-1.7c-1.18-.46-2.48-.9-3.89-1.32a16.21,16.21,0,0,1-3.89-1.7,9.48,9.48,0,0,1-3-2.88,8.59,8.59,0,0,1-1.2-4.83,9.16,9.16,0,0,1,1.08-4.56,9.86,9.86,0,0,1,2.83-3.19,12.38,12.38,0,0,1,4-1.9,17.43,17.43,0,0,1,4.61-.62A16.59,16.59,0,0,1,193,13a12.09,12.09,0,0,1,4.54,2.68Z"/>
        <path class="cls-1" d="M216.36,30.87a9.54,9.54,0,0,0-2.12-1.68,4.44,4.44,0,0,0-2.25-.62,6.55,6.55,0,0,0-5,2.11,6.4,6.4,0,0,0-1.34,2.21,7.52,7.52,0,0,0,0,5.18,6.48,6.48,0,0,0,3.48,3.74,6.57,6.57,0,0,0,2.83.58,5.64,5.64,0,0,0,2.49-.55,5.45,5.45,0,0,0,2-1.61l3.84,4.13a9.08,9.08,0,0,1-2,1.49,13.39,13.39,0,0,1-2.28,1,14.33,14.33,0,0,1-2.21.56,11.91,11.91,0,0,1-1.82.16,13.77,13.77,0,0,1-4.9-.86,11.52,11.52,0,0,1-6.65-6.26,13.09,13.09,0,0,1,0-9.94,11.43,11.43,0,0,1,6.65-6.26,13.77,13.77,0,0,1,4.9-.87,12.55,12.55,0,0,1,4.44.84,10.05,10.05,0,0,1,3.91,2.67Z"/>
        <path class="cls-1" d="M220.92,35.48a12.11,12.11,0,0,1,1-5,11.36,11.36,0,0,1,6.65-6.26,14.21,14.21,0,0,1,9.79,0A11.43,11.43,0,0,1,245,30.51a13.09,13.09,0,0,1,0,9.94,11.52,11.52,0,0,1-6.65,6.26,14.36,14.36,0,0,1-9.79,0,11.44,11.44,0,0,1-6.65-6.26A12.15,12.15,0,0,1,220.92,35.48Zm5.76,0a7.59,7.59,0,0,0,.45,2.59,6.52,6.52,0,0,0,1.35,2.21,6.81,6.81,0,0,0,9.93,0,6.68,6.68,0,0,0,1.35-2.21,7.68,7.68,0,0,0,0-5.18,6.58,6.58,0,0,0-1.35-2.21,6.78,6.78,0,0,0-9.93,0,6.42,6.42,0,0,0-1.35,2.21A7.55,7.55,0,0,0,226.68,35.48Z"/>
        <path class="cls-1" d="M249.19,24H255v3.65H255a7.14,7.14,0,0,1,2.74-3.12,7.52,7.52,0,0,1,4.08-1.11,5.07,5.07,0,0,1,1,.1,10.17,10.17,0,0,1,1,.24v5.57c-.48-.13-.95-.24-1.41-.32a8.1,8.1,0,0,0-1.37-.12,6.12,6.12,0,0,0-3.24.75A5.76,5.76,0,0,0,256,31.3a5.65,5.65,0,0,0-.87,1.92,7.43,7.43,0,0,0-.21,1.44V47h-5.76Z"/>
        <path class="cls-1" d="M270.79,37.49a5.86,5.86,0,0,0,2,4A6.32,6.32,0,0,0,277,43a6.86,6.86,0,0,0,3.62-.89,10.13,10.13,0,0,0,2.57-2.23L287.3,43a11.86,11.86,0,0,1-4.51,3.55,13.4,13.4,0,0,1-5.24,1,13.71,13.71,0,0,1-4.89-.86A11.44,11.44,0,0,1,266,40.45a12.15,12.15,0,0,1-1-5,12.11,12.11,0,0,1,1-5,11.36,11.36,0,0,1,6.65-6.26,13.72,13.72,0,0,1,4.89-.87,11.24,11.24,0,0,1,4.4.84,9.39,9.39,0,0,1,3.4,2.43,11.09,11.09,0,0,1,2.21,3.91,16.51,16.51,0,0,1,.79,5.35v1.58Zm11.8-4.32a5.41,5.41,0,0,0-1.58-4,5.92,5.92,0,0,0-4.27-1.47,5.62,5.62,0,0,0-4.11,1.49,6.65,6.65,0,0,0-1.84,4Z"/>
      </g>
      <g>
        <path class="cls-2" d="M54.41,32.23a21,21,0,0,0-5.47-13.18l8.58-8.58a33.18,33.18,0,0,1,9,21.76Z"/>
        <path class="cls-3" d="M47.48,17.59A21,21,0,0,0,34.3,12.12V0A33.13,33.13,0,0,1,56.06,9Z"/>
        <path class="cls-4" d="M10.47,9A33.18,33.18,0,0,1,32.23,0V12.12A21.11,21.11,0,0,0,19,17.59Z"/>
        <path class="cls-5" d="M17.59,19a21.08,21.08,0,0,0-5.47,13.19H0A33.18,33.18,0,0,1,9,10.47Z"/>
        <path class="cls-6" d="M22.68,22.69a15,15,0,1,1,0,21.16A15,15,0,0,1,22.68,22.69Z"/>
        <g>
          <path class="cls-7" d="M12.09,59.16V34.3H0A33.14,33.14,0,0,0,9.73,56.8l.19.19h0Z"/>
          <path class="cls-7" d="M66.53,34.3H54.4A21.16,21.16,0,0,1,18.3,48.23l-.09-.09V65.28l15,15L56.61,57h0l.2-.19A33.19,33.19,0,0,0,66.53,34.3Z"/>
        </g>
      </g>
      <g>
        <path class="cls-8" d="M87.65,69.23h-1l3.69-8.5h.84l3.7,8.5h-1L92.94,67H88.59Zm1.26-3H92.6l-1.84-4.46Z"/>
        <path class="cls-8" d="M100.57,60.73H103a3.29,3.29,0,0,1,2,.57,2,2,0,0,1,.75,1.7,2,2,0,0,1-.75,1.71,3.29,3.29,0,0,1-2,.57h-1.61v4h-.86Zm.86,3.76h1.39a3.45,3.45,0,0,0,1-.12,1.82,1.82,0,0,0,.64-.32,1.14,1.14,0,0,0,.35-.47,1.56,1.56,0,0,0,0-1.15,1.24,1.24,0,0,0-.35-.48,1.66,1.66,0,0,0-.64-.31,3.45,3.45,0,0,0-1-.12h-1.39Z"/>
        <path class="cls-8" d="M108.92,69.23h-.87v-8.5h2.62a3.33,3.33,0,0,1,2,.57,2,2,0,0,1,.75,1.7,2.12,2.12,0,0,1-.56,1.49,2.35,2.35,0,0,1-1.62.7l2.45,4h-1l-2.33-4h-1.44Zm0-4.74h1.53a3.45,3.45,0,0,0,1-.12,1.82,1.82,0,0,0,.64-.32,1.14,1.14,0,0,0,.35-.47,1.56,1.56,0,0,0,0-1.15,1.24,1.24,0,0,0-.35-.48,1.66,1.66,0,0,0-.64-.31,3.45,3.45,0,0,0-1-.12h-1.53Z"/>
        <path class="cls-8" d="M124.05,65a4.57,4.57,0,0,1-.34,1.79,4.23,4.23,0,0,1-.93,1.41,4.39,4.39,0,0,1-1.4.93,4.86,4.86,0,0,1-3.52,0,4.51,4.51,0,0,1-1.4-.93,4.23,4.23,0,0,1-.93-1.41,4.88,4.88,0,0,1,0-3.58,4.23,4.23,0,0,1,.93-1.41,4.18,4.18,0,0,1,1.4-.93,4.73,4.73,0,0,1,3.52,0,4.09,4.09,0,0,1,1.4.93,4.23,4.23,0,0,1,.93,1.41A4.53,4.53,0,0,1,124.05,65Zm-.94,0a4.08,4.08,0,0,0-.24-1.4,3.62,3.62,0,0,0-.69-1.17,3.25,3.25,0,0,0-1.09-.8,3.48,3.48,0,0,0-1.47-.3,3.43,3.43,0,0,0-1.46.3,3.29,3.29,0,0,0-1.1.8,3.62,3.62,0,0,0-.69,1.17,4.08,4.08,0,0,0-.24,1.4,4.12,4.12,0,0,0,.24,1.4,3.62,3.62,0,0,0,.69,1.17,3.37,3.37,0,0,0,2.56,1.1,3.48,3.48,0,0,0,1.47-.3,3.39,3.39,0,0,0,1.09-.8,3.62,3.62,0,0,0,.69-1.17A4.12,4.12,0,0,0,123.11,65Z"/>
        <path class="cls-8" d="M126.26,67.49a1.69,1.69,0,0,0,.44.85,1.26,1.26,0,0,0,.91.31,1.34,1.34,0,0,0,.76-.19,1.25,1.25,0,0,0,.46-.48,2,2,0,0,0,.22-.67,4.9,4.9,0,0,0,.06-.77V60.73H130V66.9a3.39,3.39,0,0,1-.12.88,2.14,2.14,0,0,1-.39.82,2.32,2.32,0,0,1-.74.6,2.41,2.41,0,0,1-1.14.24,2.33,2.33,0,0,1-1.46-.45,2,2,0,0,1-.74-1.32Z"/>
        <path class="cls-8" d="M133.63,68.43h4.54v.8h-5.41v-8.5H138v.79h-4.4v2.9h4.11v.79h-4.11Z"/>
        <path class="cls-8" d="M147.47,67.88a3,3,0,0,1-.53.61,3,3,0,0,1-.73.5,4.08,4.08,0,0,1-1.88.45,4.63,4.63,0,0,1-1.76-.33,4.39,4.39,0,0,1-1.4-.93,4.23,4.23,0,0,1-.93-1.41,4.88,4.88,0,0,1,0-3.58,4.23,4.23,0,0,1,.93-1.41,4.09,4.09,0,0,1,1.4-.93,4.64,4.64,0,0,1,1.76-.34,4.21,4.21,0,0,1,1.58.32,3.23,3.23,0,0,1,1.36,1l-.76.56a1.85,1.85,0,0,0-.36-.41,3,3,0,0,0-.52-.36,3.6,3.6,0,0,0-.63-.25,2.57,2.57,0,0,0-.67-.09,3.43,3.43,0,0,0-1.46.3,3.19,3.19,0,0,0-1.1.8,3.62,3.62,0,0,0-.69,1.17,4.08,4.08,0,0,0-.24,1.4,4.12,4.12,0,0,0,.24,1.4,3.62,3.62,0,0,0,.69,1.17,3.32,3.32,0,0,0,1.1.8,3.43,3.43,0,0,0,1.46.3,3.79,3.79,0,0,0,.67-.06,3,3,0,0,0,.64-.2,2.38,2.38,0,0,0,.6-.39,3,3,0,0,0,.53-.62Z"/>
        <path class="cls-8" d="M152.25,69.23h-.86V61.52h-2.85v-.79h6.55v.79h-2.84Z"/>
        <path class="cls-8" d="M169.23,65a4.57,4.57,0,0,1-.34,1.79,4.23,4.23,0,0,1-.93,1.41,4.39,4.39,0,0,1-1.4.93,4.86,4.86,0,0,1-3.52,0,4.39,4.39,0,0,1-1.4-.93,4.23,4.23,0,0,1-.93-1.41,4.88,4.88,0,0,1,0-3.58,4.23,4.23,0,0,1,.93-1.41,4.09,4.09,0,0,1,1.4-.93,4.73,4.73,0,0,1,3.52,0,4.09,4.09,0,0,1,1.4.93,4.23,4.23,0,0,1,.93,1.41A4.53,4.53,0,0,1,169.23,65Zm-.94,0a4.08,4.08,0,0,0-.24-1.4,3.62,3.62,0,0,0-.69-1.17,3.25,3.25,0,0,0-1.09-.8,3.48,3.48,0,0,0-1.47-.3,3.43,3.43,0,0,0-1.46.3,3.19,3.19,0,0,0-1.1.8,3.62,3.62,0,0,0-.69,1.17,4.08,4.08,0,0,0-.24,1.4,4.12,4.12,0,0,0,.24,1.4,3.62,3.62,0,0,0,.69,1.17,3.32,3.32,0,0,0,1.1.8,3.43,3.43,0,0,0,1.46.3,3.48,3.48,0,0,0,1.47-.3,3.39,3.39,0,0,0,1.09-.8,3.62,3.62,0,0,0,.69-1.17A4.12,4.12,0,0,0,168.29,65Z"/>
        <path class="cls-8" d="M172.42,69.23h-.86v-8.5h5.12v.79h-4.26v2.9h4v.79h-4Z"/>
        <path class="cls-8" d="M189.76,67.88a3,3,0,0,1-.53.61,3.14,3.14,0,0,1-.73.5,4,4,0,0,1-.88.33,4.09,4.09,0,0,1-1,.12,4.63,4.63,0,0,1-1.76-.33,4.55,4.55,0,0,1-1.41-.93,4.36,4.36,0,0,1-.92-1.41,4.88,4.88,0,0,1,0-3.58,4.36,4.36,0,0,1,.92-1.41,4.23,4.23,0,0,1,1.41-.93,4.64,4.64,0,0,1,1.76-.34,4.25,4.25,0,0,1,1.58.32,3.23,3.23,0,0,1,1.36,1l-.76.56a2.57,2.57,0,0,0-.36-.41,3.41,3.41,0,0,0-.52-.36,4.35,4.35,0,0,0-.63-.25,2.57,2.57,0,0,0-.67-.09,3.45,3.45,0,0,0-1.47.3,3.25,3.25,0,0,0-1.09.8,3.65,3.65,0,0,0-.7,1.17,4.08,4.08,0,0,0-.24,1.4,4.12,4.12,0,0,0,.24,1.4,3.65,3.65,0,0,0,.7,1.17,3.39,3.39,0,0,0,1.09.8,3.45,3.45,0,0,0,1.47.3,3.68,3.68,0,0,0,.66-.06,3,3,0,0,0,.65-.2,2.8,2.8,0,0,0,.6-.39,2.94,2.94,0,0,0,.52-.62Z"/>
        <path class="cls-8" d="M191.67,69.23h-1l3.7-8.5h.84l3.69,8.5h-1L197,67h-4.34Zm1.26-3h3.68l-1.83-4.46Z"/>
        <path class="cls-8" d="M204.83,67.64l2.87-6.91H209v8.5h-.86V61.88h0l-3.07,7.35h-.45l-3.08-7.35h0v7.35h-.86v-8.5H202Z"/>
        <path class="cls-8" d="M211.92,60.73h2.48a3.29,3.29,0,0,1,2,.57,2,2,0,0,1,.75,1.7,2,2,0,0,1-.75,1.71,3.29,3.29,0,0,1-2,.57h-1.61v4h-.87Zm.87,3.76h1.39a3.5,3.5,0,0,0,1-.12,1.82,1.82,0,0,0,.64-.32,1.14,1.14,0,0,0,.35-.47,1.56,1.56,0,0,0,0-1.15,1.24,1.24,0,0,0-.35-.48,1.66,1.66,0,0,0-.64-.31,3.5,3.5,0,0,0-1-.12h-1.39Z"/>
        <path class="cls-8" d="M218.38,69.23h-1l3.7-8.5h.84l3.7,8.5h-1L223.66,67h-4.34Zm1.26-3h3.68l-1.83-4.46Z"/>
        <path class="cls-8" d="M228.22,69.23h-.86v-8.5h.86Z"/>
        <path class="cls-8" d="M237.4,62.29a3.29,3.29,0,0,0-1-.72,3.38,3.38,0,0,0-1.39-.26,3.45,3.45,0,0,0-1.47.3,3.29,3.29,0,0,0-1.1.8,3.62,3.62,0,0,0-.69,1.17,4.08,4.08,0,0,0-.24,1.4,4.12,4.12,0,0,0,.24,1.4,3.62,3.62,0,0,0,.69,1.17,3.37,3.37,0,0,0,2.57,1.1,4.73,4.73,0,0,0,1.26-.16,4.68,4.68,0,0,0,1.09-.44V65.21h-2v-.79h2.89v4.16a6.16,6.16,0,0,1-1.58.64,6.37,6.37,0,0,1-1.63.22,4.27,4.27,0,0,1-4.1-2.67,5,5,0,0,1,0-3.58,4.55,4.55,0,0,1,.93-1.41,4.23,4.23,0,0,1,1.41-.93,4.6,4.6,0,0,1,1.76-.34,4.82,4.82,0,0,1,1.75.29,3.65,3.65,0,0,1,1.32.85Z"/>
        <path class="cls-8" d="M247.2,67.93h0v-7.2h.86v8.5H247L242,62h0v7.28h-.86v-8.5h1.08Z"/>
        <path class="cls-8" d="M255.8,68.43h4v.8h-4.83v-8.5h.87Z"/>
        <path class="cls-8" d="M262.4,68.43h4.54v.8h-5.41v-8.5h5.27v.79h-4.4v2.9h4.11v.79H262.4Z"/>
        <path class="cls-8" d="M275.52,62.29a3.18,3.18,0,0,0-1-.72,3.35,3.35,0,0,0-1.39-.26,3.43,3.43,0,0,0-1.46.3,3.19,3.19,0,0,0-1.1.8,3.62,3.62,0,0,0-.69,1.17,4.08,4.08,0,0,0-.24,1.4,4.12,4.12,0,0,0,.24,1.4,3.62,3.62,0,0,0,.69,1.17,3.32,3.32,0,0,0,1.1.8,3.43,3.43,0,0,0,1.46.3,4.86,4.86,0,0,0,1.27-.16,4.78,4.78,0,0,0,1.08-.44V65.21h-2v-.79h2.9v4.16a6.31,6.31,0,0,1-1.58.64,6.45,6.45,0,0,1-1.64.22,4.63,4.63,0,0,1-1.76-.33,4.39,4.39,0,0,1-1.4-.93,4.23,4.23,0,0,1-.93-1.41,4.88,4.88,0,0,1,0-3.58,4.23,4.23,0,0,1,.93-1.41,4.09,4.09,0,0,1,1.4-.93,4.64,4.64,0,0,1,1.76-.34,4.88,4.88,0,0,1,1.76.29,3.61,3.61,0,0,1,1.31.85Z"/>
        <path class="cls-8" d="M279,69.23h-1l3.7-8.5h.84l3.69,8.5h-1L284.32,67H280Zm1.26-3H284l-1.83-4.46Z"/>
        <path class="cls-8" d="M288.88,68.43h4v.8H288v-8.5h.86Z"/>
        <path class="cls-8" d="M305.55,67.88A3.54,3.54,0,0,1,304.29,69a4.09,4.09,0,0,1-.89.33,4,4,0,0,1-1,.12,4.4,4.4,0,0,1-3.16-1.26,4.38,4.38,0,0,1-.93-1.41,5,5,0,0,1,0-3.58,4.38,4.38,0,0,1,.93-1.41,4.23,4.23,0,0,1,1.41-.93,4.59,4.59,0,0,1,1.75-.34,4.3,4.3,0,0,1,1.59.32,3.14,3.14,0,0,1,1.35,1l-.75.56a2.57,2.57,0,0,0-.36-.41,3.51,3.51,0,0,0-.53-.36,3.6,3.6,0,0,0-.63-.25,2.52,2.52,0,0,0-.67-.09,3.43,3.43,0,0,0-1.46.3,3.29,3.29,0,0,0-1.1.8,3.62,3.62,0,0,0-.69,1.17,4.08,4.08,0,0,0-.24,1.4,4.12,4.12,0,0,0,.24,1.4,3.62,3.62,0,0,0,.69,1.17,3.37,3.37,0,0,0,2.56,1.1,3.71,3.71,0,0,0,.67-.06,3.23,3.23,0,0,0,.65-.2,2.8,2.8,0,0,0,.6-.39,3.28,3.28,0,0,0,.52-.62Z"/>
        <path class="cls-8" d="M308.46,68.43H313v.8H307.6v-8.5h5.27v.79h-4.41v2.9h4.12v.79h-4.12Z"/>
        <path class="cls-8" d="M321.46,67.93h0v-7.2h.87v8.5h-1.08L316.2,62h0v7.28h-.86v-8.5h1.08Z"/>
        <path class="cls-8" d="M328,69.23h-.87V61.52h-2.84v-.79h6.55v.79H328Z"/>
        <path class="cls-8" d="M333.6,68.43h4.55v.8h-5.41v-8.5H338v.79H333.6v2.9h4.12v.79H333.6Z"/>
        <path class="cls-8" d="M341.32,69.23h-.86v-8.5h2.61a3.31,3.31,0,0,1,2.05.57,2,2,0,0,1,.75,1.7,2.12,2.12,0,0,1-.56,1.49,2.35,2.35,0,0,1-1.62.7l2.45,4h-1.05l-2.33-4h-1.44Zm0-4.74h1.54a3.38,3.38,0,0,0,1-.12,1.88,1.88,0,0,0,.65-.32,1.12,1.12,0,0,0,.34-.47,1.4,1.4,0,0,0,.11-.58,1.38,1.38,0,0,0-.11-.57,1.21,1.21,0,0,0-.34-.48,1.71,1.71,0,0,0-.65-.31,3.38,3.38,0,0,0-1-.12h-1.54Z"/>
      </g>
    </g>
  </g>
</svg>
