<?xml version="1.0" encoding="UTF-8"?>
<svg width="536px" height="237px" viewBox="0 0 536 237" version="1.1" xmlns="http://www.w3.org/2000/svg" xmlns:xlink="http://www.w3.org/1999/xlink">
    <!-- Generator: Sketch 51.3 (57544) - http://www.bohemiancoding.com/sketch -->
    <title>statesenate_dec2_plan_curve</title>
    <desc>Created with Sketch.</desc>
    <defs>
        <linearGradient x1="7.099282296650713%" y1="0%" x2="87.09928229665071%" y2="0%" id="linearGradient-1">
            <stop stop-color="#CD3952" offset="0%"></stop>
            <stop stop-color="#DFDFDF" offset="50%"></stop>
            <stop stop-color="#0A4FAB" offset="100%"></stop>
        </linearGradient>
    </defs>
    <g id="ushouse_eg_plan_curve" stroke="none" stroke-width="1" fill="none" fill-rule="evenodd">
        <path d="M 0.0 237.0 C -110.1 235.5 -94.8 232.6 -79.4 228.3 C -64.0 223.9 -48.5 216.0 -33.1 210.9 C -17.6 205.8 -2.2 204.4 13.2 197.8 C 28.7 191.3 44.1 176.8 59.6 171.7 C 75.0 166.6 90.4 184.8 105.9 167.4 C 121.3 149.9 136.8 87.5 152.2 67.2 C 167.6 46.9 183.1 53.0 198.5 45.5 C 212.9 38.5 227.2 15.3 241.5 23.7 C 257.0 32.7 272.4 73.8 287.9 97.7 C 303.3 121.6 318.7 157.2 334.2 167.4 C 349.6 177.5 365.1 152.1 380.5 158.6 C 395.9 165.2 411.4 197.8 426.8 206.5 C 442.3 215.2 457.7 207.3 473.1 210.9 C 488.6 214.5 504.0 226.1 519.5 228.3 C 534.9 230.5 550.3 223.2 565.8 223.9 C 581.2 224.7 596.7 230.5 612.1 232.6 C 627.5 234.8 642.8 236.3 658.2 237.0 L 536.0 237.0 L 0.0 237.0 Z" id="Shape" fill="url(#linearGradient-1)" transform="translate(536 0) scale(-1, 1)"></path>
        <polygon id="Shape" fill="#C6C6C6" points="0 0 0 235 0 237 2 237 268 237 270 237 534 237 536 237 536 235 536 0 534 0 534 235 270 235 270 0 268 0 268 235 2 235 2 0"></polygon>
    </g>
</svg>
