<?xml version="1.0" encoding="UTF-8"?>
<svg width="536px" height="237px" viewBox="0 0 536 237" version="1.1" xmlns="http://www.w3.org/2000/svg" xmlns:xlink="http://www.w3.org/1999/xlink">
    <!-- Generator: Sketch 51.3 (57544) - http://www.bohemiancoding.com/sketch -->
    <title>statesenate_mmd_plan_curve</title>
    <desc>Created with Sketch.</desc>
    <defs>
        <linearGradient x1="11.21951219512195%" y1="0%" x2="91.21951219512195%" y2="0%" id="linearGradient-1">
            <stop stop-color="#CD3952" offset="0%"></stop>
            <stop stop-color="#DFDFDF" offset="50%"></stop>
            <stop stop-color="#0A4FAB" offset="100%"></stop>
        </linearGradient>
    </defs>
    <g id="ushouse_eg_plan_curve" stroke="none" stroke-width="1" fill="none" fill-rule="evenodd">
        <path d="M 0.0 237.0 C -32.1 236.2 -22.7 233.7 -13.4 232.2 C -3.7 230.5 6.0 229.8 15.6 227.3 C 24.6 225.0 33.5 219.2 42.4 217.6 C 52.1 215.9 61.8 221.8 71.5 217.6 C 80.4 213.7 89.3 201.1 98.3 193.4 C 107.9 185.0 117.6 178.4 127.3 169.1 C 136.2 160.6 145.2 146.3 154.1 140.0 C 163.8 133.3 173.5 146.3 183.1 130.3 C 192.1 115.6 201.0 57.2 209.9 47.9 C 219.6 37.9 229.3 76.4 239.0 72.2 C 247.9 68.3 256.8 22.9 265.8 23.7 C 275.4 24.5 285.1 56.0 294.8 77.0 C 303.7 96.4 312.7 124.7 321.6 144.9 C 331.3 166.7 341.0 187.9 350.6 203.1 C 359.6 217.0 368.5 227.5 377.4 232.2 C 387.1 237.2 396.8 231.3 406.5 232.2 C 415.8 232.9 425.1 236.2 434.5 237.0 L 536.0 237.0 L 0.0 237.0 Z" id="Shape" fill="url(#linearGradient-1)" transform="translate(536 0) scale(-1, 1)"></path>
        <polygon id="Shape" fill="#C6C6C6" points="0 0 0 235 0 237 2 237 268 237 270 237 534 237 536 237 536 235 536 0 534 0 534 235 270 235 270 0 268 0 268 235 2 235 2 0"></polygon>
    </g>
</svg>
