<svg width="536" height="237" viewBox="0 0 536 237" fill="none" xmlns="http://www.w3.org/2000/svg">
<rect width="536" height="237" fill="white"/>
<path d="M58.5 234.779L509.8 236.379L509.5 210.479C509.5 210.479 489.5 215.779 479.4 204.079C469.4 192.379 459.4 159.379 449.3 140.279C439.3 121.179 429.3 94.5788 419.2 89.2788C409.2 83.9788 399.2 121.179 389.1 108.379C379.1 95.5788 369.1 22.2788 359 12.6788C349 3.07878 339 37.1788 328.9 50.9788C318.9 64.7788 308.9 89.2788 298.8 95.6788C288.8 102.079 278.8 82.8788 268.7 89.2788C258.7 95.6788 248.7 120.079 238.6 133.979C228.6 147.779 218.6 164.779 208.5 172.279C198.5 179.679 188.5 176.579 178.4 178.679C168.4 180.779 158.4 179.779 148.3 185.079C138.3 190.379 128.3 203.179 118.2 210.579C108.1 217.979 98.2001 227.579 88.1001 229.679C78.1001 231.779 58 223.279 58 223.279V234.779H58.5Z" fill="url(#paint0_linear)"/>
<path fill-rule="evenodd" clip-rule="evenodd" d="M0 0V235V237H2H268H270H534H536V235V0H534V235H270V0H268V235H2V0H0Z" fill="#C6C6C6"/>
<defs>
<linearGradient id="paint0_linear" x1="505.219" y1="136.551" x2="50.8422" y2="136.551" gradientUnits="userSpaceOnUse">
<stop stop-color="#CD3952"/>
<stop offset="0.526042" stop-color="#DFDFDF"/>
<stop offset="1" stop-color="#0A4FAB"/>
</linearGradient>
</defs>
</svg>
