<svg width="536" height="237" viewBox="0 0 536 237" fill="none" xmlns="http://www.w3.org/2000/svg">
<rect width="536" height="237" fill="white"/>
<path d="M1.00006 234.528H446.6L446.8 193.528C446.8 193.528 427 208.028 417.1 199.728C407.2 191.428 397.3 155.228 387.4 143.828C377.5 132.428 367.6 140.728 357.7 131.428C347.8 122.128 337.9 87.9277 328 87.9277C318.1 87.9277 308.2 145.928 298.3 131.428C288.4 116.928 278.5 -1.07231 268.6 1.02769C258.7 3.12769 248.8 121.128 238.9 143.928C229 166.728 219.1 146.028 209.2 137.728C199.3 129.428 189.4 92.1277 179.5 94.2277C169.6 96.3277 159.7 137.728 149.8 150.128C139.9 162.528 130 159.428 120.1 168.728C110.2 178.028 100.3 199.828 90.4 206.028C80.5 212.228 70.6001 201.928 60.7001 206.028C50.8001 210.128 40.9001 227.728 31.0001 230.828C21.1001 233.928 1.30005 224.628 1.30005 224.628L1.00006 234.528Z" fill="url(#paint0_linear)"/>
<path fill-rule="evenodd" clip-rule="evenodd" d="M0 0V235V237H2H268H270H534H536V235V0H534V235H270V0H268V235H2V0H0Z" fill="#C6C6C6"/>
<defs>
<linearGradient id="paint0_linear" x1="442.28" y1="131.091" x2="-6.06268" y2="131.091" gradientUnits="userSpaceOnUse">
<stop stop-color="#CD3952"/>
<stop offset="0.385417" stop-color="#DFDFDF"/>
<stop offset="1" stop-color="#0A4FAB"/>
</linearGradient>
</defs>
</svg>
