<?xml version="1.0" encoding="UTF-8"?>
<svg width="536px" height="237px" viewBox="0 0 536 237" version="1.1" xmlns="http://www.w3.org/2000/svg" xmlns:xlink="http://www.w3.org/1999/xlink">
    <!-- Generator: Sketch 51.3 (57544) - http://www.bohemiancoding.com/sketch -->
    <title>statesenate_bias_plan_curve</title>
    <desc>Created with Sketch.</desc>
    <defs>
        <linearGradient x1="10.0%" y1="0%" x2="90.0%" y2="0%" id="linearGradient-1">
            <stop stop-color="#CD3952" offset="0%"></stop>
            <stop stop-color="#DFDFDF" offset="50%"></stop>
            <stop stop-color="#0A4FAB" offset="100%"></stop>
        </linearGradient>
    </defs>
    <g id="ushouse_eg_plan_curve" stroke="none" stroke-width="1" fill="none" fill-rule="evenodd">
        <path d="M 0.0 237.0 C 61.9 231.8 69.6 212.8 77.2 205.6 C 85.0 198.2 92.9 201.6 100.8 193.1 C 108.3 184.9 115.8 172.2 123.3 155.4 C 130.8 138.7 138.3 99.0 145.8 92.7 C 153.3 86.4 160.8 120.9 168.3 117.8 C 176.2 114.6 184.0 87.8 191.9 73.9 C 199.4 60.6 206.9 38.3 214.4 36.2 C 221.9 34.2 229.4 63.4 236.9 61.3 C 244.8 59.2 252.6 22.6 260.5 23.7 C 268.0 24.7 275.5 51.9 283.0 67.6 C 290.5 83.3 298.0 102.1 305.5 117.8 C 313.0 133.5 320.5 154.6 328.0 161.7 C 335.9 169.2 343.8 155.3 351.6 161.7 C 359.1 167.8 366.6 188.9 374.1 199.4 C 381.6 209.8 389.1 219.3 396.6 224.5 C 404.5 229.8 412.4 228.6 420.2 230.7 C 427.8 232.8 435.5 236.0 443.1 237.0 L 536.0 237.0 L 0.0 237.0 Z" id="Shape" fill="url(#linearGradient-1)" transform="translate(536 0) scale(-1, 1)"></path>
        <polygon id="Shape" fill="#C6C6C6" points="0 0 0 235 0 237 2 237 268 237 270 237 534 237 536 237 536 235 536 0 534 0 534 235 270 235 270 0 268 0 268 235 2 235 2 0"></polygon>
    </g>
</svg>
