<?xml version="1.0" encoding="UTF-8"?>
<svg width="536px" height="237px" viewBox="0 0 536 237" version="1.1" xmlns="http://www.w3.org/2000/svg" xmlns:xlink="http://www.w3.org/1999/xlink">
    <!-- Generator: Sketch 51.3 (57544) - http://www.bohemiancoding.com/sketch -->
    <title>statesenate_bias_plan_curve</title>
    <desc>Created with Sketch.</desc>
    <defs>
        <linearGradient x1="10.0%" y1="0%" x2="90.0%" y2="0%" id="linearGradient-1">
            <stop stop-color="#CD3952" offset="0%"></stop>
            <stop stop-color="#DFDFDF" offset="50%"></stop>
            <stop stop-color="#0A4FAB" offset="100%"></stop>
        </linearGradient>
    </defs>
    <g id="ushouse_eg_plan_curve" stroke="none" stroke-width="1" fill="none" fill-rule="evenodd">
        <path d="M 0.0 237.0 C 81.0 229.2 88.2 201.5 95.4 190.3 C 102.6 179.3 109.7 177.0 116.8 170.3 C 124.0 163.7 131.1 167.0 138.3 150.3 C 145.4 133.7 152.6 75.8 159.7 70.4 C 167.2 64.7 174.7 125.0 182.2 117.0 C 189.4 109.4 196.5 30.4 203.7 23.7 C 210.8 17.0 218.0 74.8 225.1 77.0 C 232.3 79.2 239.4 45.9 246.6 37.0 C 253.7 28.1 260.9 11.5 268.0 23.7 C 275.1 35.9 282.3 93.0 289.4 110.4 C 296.9 128.6 304.4 120.1 312.0 130.3 C 319.1 140.1 326.2 164.8 333.4 170.3 C 340.5 175.9 347.7 157.0 354.8 163.7 C 362.0 170.3 369.1 200.3 376.3 210.3 C 383.4 220.3 390.6 220.4 397.7 223.7 C 405.2 227.1 412.7 228.1 420.2 230.3 C 427.4 232.5 434.7 235.9 441.9 237.0 L 536.0 237.0 L 0.0 237.0 Z" id="Shape" fill="url(#linearGradient-1)" transform="translate(536 0) scale(-1, 1)"></path>
        <polygon id="Shape" fill="#C6C6C6" points="0 0 0 235 0 237 2 237 268 237 270 237 534 237 536 237 536 235 536 0 534 0 534 235 270 235 270 0 268 0 268 235 2 235 2 0"></polygon>
    </g>
</svg>
