<?xml version="1.0" encoding="UTF-8"?>
<svg width="536px" height="237px" viewBox="0 0 536 237" version="1.1" xmlns="http://www.w3.org/2000/svg" xmlns:xlink="http://www.w3.org/1999/xlink">
    <!-- Generator: Sketch 51.3 (57544) - http://www.bohemiancoding.com/sketch -->
    <title>statehouse_eg_plan_curve</title>
    <desc>Created with Sketch.</desc>
    <defs>
        <linearGradient x1="-2.544946064722332%" y1="0%" x2="77.45505393527768%" y2="0%" id="linearGradient-1">
            <stop stop-color="#CD3952" offset="0%"></stop>
            <stop stop-color="#DFDFDF" offset="50%"></stop>
            <stop stop-color="#0A4FAB" offset="100%"></stop>
        </linearGradient>
    </defs>
    <g id="ushouse_eg_plan_curve" stroke="none" stroke-width="1" fill="none" fill-rule="evenodd">
        <path d="M 0.0 237.0 C 99.7 228.4 112.0 197.2 124.4 185.5 C 136.5 173.9 148.7 185.2 160.8 167.1 C 173.3 148.5 185.8 99.4 198.3 75.2 C 210.5 51.6 222.6 28.5 234.8 23.7 C 247.3 18.7 259.8 36.4 272.3 45.8 C 284.4 54.8 296.6 63.2 308.7 78.9 C 321.2 95.0 333.7 122.1 346.3 141.4 C 358.4 160.1 370.6 179.6 382.7 192.9 C 395.2 206.5 407.7 215.4 420.2 222.3 C 432.4 228.9 444.5 230.9 456.7 233.3 C 469.2 235.8 481.7 236.4 494.2 237.0 C 506.3 237.6 518.5 237.0 530.6 237.0 C 543.1 237.0 555.7 237.0 568.2 237.0 C 580.3 237.0 592.5 237.6 604.6 237.0 C 617.1 236.4 629.6 233.9 642.1 233.3 C 654.3 232.7 666.4 232.7 678.6 233.3 C 690.9 233.9 703.2 236.4 715.5 237.0 L 536.0 237.0 L 0.0 237.0 Z" id="Shape" fill="url(#linearGradient-1)" transform="translate(536 0) scale(-1, 1)"></path>
        <polygon id="Shape" fill="#C6C6C6" points="0 0 0 235 0 237 2 237 268 237 270 237 534 237 536 237 536 235 536 0 534 0 534 235 270 235 270 0 268 0 268 235 2 235 2 0"></polygon>
    </g>
</svg>
