<?xml version="1.0" encoding="UTF-8"?>
<svg width="536px" height="237px" viewBox="0 0 536 237" version="1.1" xmlns="http://www.w3.org/2000/svg" xmlns:xlink="http://www.w3.org/1999/xlink">
    <!-- Generator: Sketch 51.3 (57544) - http://www.bohemiancoding.com/sketch -->
    <title>statehouse_mmd_plan_curve</title>
    <desc>Created with Sketch.</desc>
    <defs>
        <linearGradient x1="10.0%" y1="0%" x2="90.0%" y2="0%" id="linearGradient-1">
            <stop stop-color="#CD3952" offset="0%"></stop>
            <stop stop-color="#DFDFDF" offset="50%"></stop>
            <stop stop-color="#0A4FAB" offset="100%"></stop>
        </linearGradient>
    </defs>
    <g id="ushouse_eg_plan_curve" stroke="none" stroke-width="1" fill="none" fill-rule="evenodd">
        <path d="M 0.0 237.0 C 46.8 232.2 54.6 211.1 62.5 208.2 C 70.0 205.4 77.4 222.5 84.9 219.7 C 93.1 216.7 101.2 205.0 109.4 190.9 C 116.9 178.1 124.3 148.1 131.8 139.0 C 140.0 128.9 148.1 144.8 156.3 133.2 C 164.5 121.7 172.7 74.9 180.9 69.8 C 188.3 65.2 195.8 102.6 203.2 104.4 C 211.4 106.4 219.6 93.4 227.8 81.3 C 235.2 70.4 242.7 44.4 250.1 35.2 C 258.3 25.2 266.5 8.3 274.7 23.7 C 282.9 39.1 291.1 115.4 299.3 127.5 C 306.7 138.4 314.2 92.9 321.6 92.9 C 329.8 92.9 338.0 111.4 346.2 127.5 C 353.6 142.1 361.1 167.7 368.5 185.1 C 376.7 204.2 384.9 229.3 393.1 237.0 C 401.3 244.7 409.4 231.2 417.6 231.2 C 425.5 231.2 433.4 236.0 441.3 237.0 L 536.0 237.0 L 0.0 237.0 Z" id="Shape" fill="url(#linearGradient-1)" transform="translate(536 0) scale(-1, 1)"></path>
        <polygon id="Shape" fill="#C6C6C6" points="0 0 0 235 0 237 2 237 268 237 270 237 534 237 536 237 536 235 536 0 534 0 534 235 270 235 270 0 268 0 268 235 2 235 2 0"></polygon>
    </g>
</svg>
