<?xml version="1.0" encoding="UTF-8"?>
<svg width="536px" height="237px" viewBox="0 0 536 237" version="1.1" xmlns="http://www.w3.org/2000/svg" xmlns:xlink="http://www.w3.org/1999/xlink">
    <!-- Generator: Sketch 51.3 (57544) - http://www.bohemiancoding.com/sketch -->
    <title>statehouse_eg_plan_curve</title>
    <desc>Created with Sketch.</desc>
    <defs>
        <linearGradient x1="-2.544946064722332%" y1="0%" x2="77.45505393527768%" y2="0%" id="linearGradient-1">
            <stop stop-color="#CD3952" offset="0%"></stop>
            <stop stop-color="#DFDFDF" offset="50%"></stop>
            <stop stop-color="#0A4FAB" offset="100%"></stop>
        </linearGradient>
    </defs>
    <g id="ushouse_eg_plan_curve" stroke="none" stroke-width="1" fill="none" fill-rule="evenodd">
        <path d="M 0.0 237.0 C 99.7 227.8 112.0 194.3 124.4 181.7 C 136.5 169.3 148.7 179.5 160.8 161.9 C 173.3 143.9 185.8 98.4 198.3 75.1 C 210.5 52.3 222.6 30.2 234.8 23.7 C 247.3 17.0 259.8 24.2 272.3 35.6 C 284.4 46.6 296.6 74.0 308.7 90.8 C 321.2 108.2 333.7 122.2 346.3 138.2 C 358.4 153.8 370.6 171.4 382.7 185.7 C 395.2 200.3 407.7 217.8 420.2 225.2 C 432.4 232.3 444.5 227.2 456.7 229.1 C 469.2 231.1 481.7 235.7 494.2 237.0 C 506.3 238.3 518.5 237.0 530.6 237.0 C 543.1 237.0 555.7 237.0 568.2 237.0 C 580.3 237.0 592.5 237.6 604.6 237.0 C 617.1 236.3 629.6 233.7 642.1 233.1 C 654.3 232.4 666.4 232.4 678.6 233.1 C 690.9 233.7 703.2 236.3 715.5 237.0 L 536.0 237.0 L 0.0 237.0 Z" id="Shape" fill="url(#linearGradient-1)" transform="translate(536 0) scale(-1, 1)"></path>
        <polygon id="Shape" fill="#C6C6C6" points="0 0 0 235 0 237 2 237 268 237 270 237 534 237 536 237 536 235 536 0 534 0 534 235 270 235 270 0 268 0 268 235 2 235 2 0"></polygon>
    </g>
</svg>
