<?xml version="1.0" encoding="UTF-8"?>
<svg width="536px" height="237px" viewBox="0 0 536 237" version="1.1" xmlns="http://www.w3.org/2000/svg" xmlns:xlink="http://www.w3.org/1999/xlink">
    <!-- Generator: Sketch 51.3 (57544) - http://www.bohemiancoding.com/sketch -->
    <title>statesenate_mmd_plan_curve</title>
    <desc>Created with Sketch.</desc>
    <defs>
        <linearGradient x1="11.21951219512195%" y1="0%" x2="91.21951219512195%" y2="0%" id="linearGradient-1">
            <stop stop-color="#CD3952" offset="0%"></stop>
            <stop stop-color="#DFDFDF" offset="50%"></stop>
            <stop stop-color="#0A4FAB" offset="100%"></stop>
        </linearGradient>
    </defs>
    <g id="ushouse_eg_plan_curve" stroke="none" stroke-width="1" fill="none" fill-rule="evenodd">
        <path d="M 0.0 237.0 C -31.9 236.2 -22.6 233.7 -13.4 232.2 C -3.7 230.5 6.0 229.0 15.6 227.3 C 24.6 225.8 33.5 225.7 42.4 222.5 C 51.4 219.2 60.3 211.8 69.2 207.9 C 78.9 203.7 88.6 208.3 98.3 198.2 C 107.2 188.9 116.1 160.6 125.1 149.7 C 134.7 138.0 144.4 133.7 154.1 130.3 C 163.0 127.2 172.0 141.7 180.9 130.3 C 189.8 119.0 198.8 74.9 207.7 62.5 C 217.4 49.0 227.1 59.5 236.7 52.8 C 245.7 46.6 254.6 21.4 263.5 23.7 C 273.2 26.2 282.9 47.2 292.6 67.3 C 301.5 85.9 310.4 118.2 319.4 140.0 C 328.3 161.9 337.2 184.3 346.2 198.2 C 355.8 213.3 365.5 221.4 375.2 227.3 C 384.1 232.7 393.1 230.6 402.0 232.2 C 411.2 233.8 420.5 236.2 429.7 237.0 L 536.0 237.0 L 0.0 237.0 Z" id="Shape" fill="url(#linearGradient-1)" transform="translate(536 0) scale(-1, 1)"></path>
        <polygon id="Shape" fill="#C6C6C6" points="0 0 0 235 0 237 2 237 268 237 270 237 534 237 536 237 536 235 536 0 534 0 534 235 270 235 270 0 268 0 268 235 2 235 2 0"></polygon>
    </g>
</svg>
