<?xml version="1.0" encoding="UTF-8"?>
<svg width="536px" height="237px" viewBox="0 0 536 237" version="1.1" xmlns="http://www.w3.org/2000/svg" xmlns:xlink="http://www.w3.org/1999/xlink">
    <!-- Generator: Sketch 51.3 (57544) - http://www.bohemiancoding.com/sketch -->
    <title>statehouse_bias_plan_curve</title>
    <desc>Created with Sketch.</desc>
    <defs>
        <linearGradient x1="10.0%" y1="0%" x2="90.0%" y2="0%" id="linearGradient-1">
            <stop stop-color="#CD3952" offset="0%"></stop>
            <stop stop-color="#DFDFDF" offset="50%"></stop>
            <stop stop-color="#0A4FAB" offset="100%"></stop>
        </linearGradient>
    </defs>
    <g id="ushouse_eg_plan_curve" stroke="none" stroke-width="1" fill="none" fill-rule="evenodd">
        <path d="M 0.0 237.0 C 75.9 235.1 83.0 234.1 90.0 225.5 C 97.2 216.8 104.3 196.6 111.5 185.1 C 118.6 173.6 125.8 160.1 132.9 156.3 C 140.1 152.4 147.2 170.9 154.4 162.1 C 161.2 153.6 167.9 113.8 174.7 104.4 C 181.9 94.6 189.0 117.9 196.2 104.4 C 203.3 91.0 210.5 26.6 217.6 23.7 C 224.8 20.8 231.9 87.1 239.1 87.1 C 246.2 87.1 253.3 25.6 260.5 23.7 C 267.6 21.8 274.8 59.8 281.9 75.6 C 288.7 90.6 295.5 102.8 302.3 115.9 C 309.5 129.7 316.6 150.5 323.7 156.3 C 330.9 162.1 338.0 142.8 345.2 150.5 C 352.3 158.2 359.5 193.8 366.6 202.4 C 373.8 211.1 380.9 197.5 388.1 202.4 C 394.9 207.1 401.6 225.6 408.4 231.2 C 415.5 237.1 422.6 236.0 429.7 237.0 L 536.0 237.0 L 0.0 237.0 Z" id="Shape" fill="url(#linearGradient-1)" transform="translate(536 0) scale(-1, 1)"></path>
        <polygon id="Shape" fill="#C6C6C6" points="0 0 0 235 0 237 2 237 268 237 270 237 534 237 536 237 536 235 536 0 534 0 534 235 270 235 270 0 268 0 268 235 2 235 2 0"></polygon>
    </g>
</svg>
