<?xml version="1.0" encoding="UTF-8"?>
<svg width="536px" height="237px" viewBox="0 0 536 237" version="1.1" xmlns="http://www.w3.org/2000/svg" xmlns:xlink="http://www.w3.org/1999/xlink">
    <!-- Generator: Sketch 51.3 (57544) - http://www.bohemiancoding.com/sketch -->
    <title>statehouse_dec2_plan_curve</title>
    <desc>Created with Sketch.</desc>
    <defs>
        <polygon id="path-1" points="0.55 0.416668 536.45 0.416668 536.45 236.45 0.55 236.45"></polygon>
        <linearGradient x1="0%" y1="68.5748998%" x2="84.3624714%" y2="68.5781734%" id="linearGradient-3">
            <stop stop-color="#CD3952" offset="0%"></stop>
            <stop stop-color="#DFDFDF" offset="38.2543813%"></stop>
            <stop stop-color="#0A4FAB" offset="100%"></stop>
        </linearGradient>
    </defs>
    <g id="statehouse_dec2_plan_curve" stroke="none" stroke-width="1" fill="none" fill-rule="evenodd">
        <g id="Clipped" transform="translate(268.500000, 118.500000) scale(-1, 1) translate(-268.500000, -118.500000) ">
            <mask id="mask-2" fill="white">
                <use xlink:href="#path-1"></use>
            </mask>
            <g id="Shape"></g>
            <path d="M131.88623,189.24333 C131.88623,189.24333 150.46501,160.72264 159.75441,147.9375 C169.0438,135.15236 178.33319,126.30112 187.62257,112.5325 C196.91197,98.76389 206.20135,82.04486 215.49075,65.325836 C224.78015,48.606804 234.06952,20.08611 243.35892,12.21833 C252.64832,4.350555 261.9377,3.36708 271.22708,18.11916 C280.51648,32.87125 289.80588,75.16055 299.09528,100.73083 C308.38464,126.30112 317.67404,157.77222 326.96344,171.54083 C336.25284,185.30945 345.5422,177.44167 354.8316,183.3425 C364.121,189.24333 373.4104,201.045 382.69977,206.94583 C391.98917,212.84668 401.27856,216.78055 410.56796,218.7475 C419.85733,220.71445 429.14673,215.7971 438.43613,218.7475 C447.72552,221.6979 457.0149,233.49957 466.3043,236.45 C475.5937,239.40042 484.88306,237.43347 494.1725,236.45 C503.46185,235.46652 512.7512,231.53265 522.04065,230.54916 C531.33,229.5657 549.9088,230.54916 549.9088,230.54916 L549.9088,236.45 L131.88623,236.45 L131.88623,189.24333 Z" id="Shape" fill="url(#linearGradient-3)" mask="url(#mask-2)"></path>
        </g>
        <polygon id="Shape" fill="#C6C6C6" points="0 0 0 235 0 237 2 237 268 237 270 237 534 237 536 237 536 235 536 0 534 0 534 235 270 235 270 0 268 0 268 235 2 235 2 0"></polygon>
    </g>
</svg>