<?xml version="1.0" encoding="UTF-8"?>
<svg width="536px" height="237px" viewBox="0 0 536 237" version="1.1" xmlns="http://www.w3.org/2000/svg" xmlns:xlink="http://www.w3.org/1999/xlink">
    <!-- Generator: Sketch 51.3 (57544) - http://www.bohemiancoding.com/sketch -->
    <title>statehouse_eg_plan_curve</title>
    <desc>Created with Sketch.</desc>
    <defs>
        <polygon id="path-1" points="0.55 0.416668 536.45 0.416668 536.45 236.45 0.55 236.45"></polygon>
        <linearGradient x1="0%" y1="73.2439643%" x2="92.8811777%" y2="73.2439643%" id="linearGradient-3">
            <stop stop-color="#CD3952" offset="0%"></stop>
            <stop stop-color="#DFDFDF" offset="41.9493788%"></stop>
            <stop stop-color="#0A4FAB" offset="100%"></stop>
        </linearGradient>
    </defs>
    <g id="statehouse_eg_plan_curve" stroke="none" stroke-width="1" fill="none" fill-rule="evenodd">
        <g id="Clipped" transform="translate(268.500000, 118.500000) scale(-1, 1) translate(-268.500000, -118.500000) ">
            <mask id="mask-2" fill="white">
                <use xlink:href="#path-1"></use>
            </mask>
            <g id="Shape"></g>
            <path d="M90.74142,186.75877 C90.74142,186.75877 110.55154,199.18158 120.45659,192.97017 C130.36165,186.75877 140.26671,159.8427 150.17177,149.49036 C160.07683,139.13802 169.98189,140.17325 179.88695,130.85614 C189.792,121.53903 199.69707,91.51726 209.60213,93.58772 C219.50717,95.65819 229.41223,157.77222 239.3173,143.27895 C249.22235,128.78568 259.1274,5.592834 269.03247,6.62807 C278.93753,7.66331 288.8426,126.71521 298.74765,149.49036 C308.6527,172.2655 318.55777,151.56082 328.46283,143.27895 C338.3679,134.99707 348.27295,97.72865 358.178,99.79912 C368.08307,101.86958 377.98813,143.27895 387.8932,155.70175 C397.79825,168.12456 407.7033,165.01886 417.60834,174.33597 C427.5134,183.65308 437.41846,205.39297 447.32352,211.6044 C457.22858,217.8158 467.13367,207.46344 477.0387,211.6044 C486.9438,215.74533 496.8488,233.3443 506.7539,236.45 C516.65894,239.5557 536.46906,230.2386 536.46906,230.2386 L536.46906,236.45 L90.74142,236.45 L90.74142,186.75877 Z" id="Shape" fill="url(#linearGradient-3)" mask="url(#mask-2)"></path>
        </g>
        <polygon id="Shape" fill="#C6C6C6" points="0 0 0 235 0 237 2 237 268 237 270 237 534 237 536 237 536 235 536 0 534 0 534 235 270 235 270 0 268 0 268 235 2 235 2 0"></polygon>
    </g>
</svg>