<?xml version="1.0" encoding="UTF-8"?>
<svg width="536px" height="237px" viewBox="0 0 536 237" version="1.1" xmlns="http://www.w3.org/2000/svg" xmlns:xlink="http://www.w3.org/1999/xlink">
    <!-- Generator: Sketch 51.3 (57544) - http://www.bohemiancoding.com/sketch -->
    <title>statehouse_dec2_plan_curve</title>
    <desc>Created with Sketch.</desc>
    <defs>
        <linearGradient x1="-1.222542814594192%" y1="0%" x2="78.77745718540581%" y2="0%" id="linearGradient-1">
            <stop stop-color="#CD3952" offset="0%"></stop>
            <stop stop-color="#DFDFDF" offset="50%"></stop>
            <stop stop-color="#0A4FAB" offset="100%"></stop>
        </linearGradient>
    </defs>
    <g id="ushouse_eg_plan_curve" stroke="none" stroke-width="1" fill="none" fill-rule="evenodd">
        <path d="M 0.0 237.0 C -139.1 236.4 -119.3 237.6 -99.6 233.2 C -79.8 228.7 -60.1 218.6 -40.4 210.3 C -20.6 202.1 -0.9 193.8 18.9 183.7 C 38.6 173.5 58.3 170.3 78.1 149.4 C 97.8 128.4 117.6 78.9 137.3 58.0 C 157.1 37.0 176.8 26.9 196.5 23.7 C 216.3 20.5 236.0 23.7 255.8 38.9 C 275.6 54.2 295.5 94.1 315.3 115.1 C 335.1 136.0 354.8 152.6 374.5 164.6 C 394.3 176.7 414.0 177.3 433.8 187.5 C 453.5 197.6 473.2 219.9 493.0 225.6 C 512.7 231.3 532.5 221.1 552.2 221.8 C 572.0 222.4 591.7 227.5 611.4 229.4 C 631.2 231.3 650.9 231.9 670.7 233.2 C 690.4 234.5 710.1 237.0 729.9 237.0 C 749.6 237.0 769.4 233.2 789.1 233.2 C 808.9 233.2 828.6 236.4 848.4 237.0 L 536.0 237.0 L 0.0 237.0 Z" id="Shape" fill="url(#linearGradient-1)" transform="translate(536 0) scale(-1, 1)"></path>
        <polygon id="Shape" fill="#C6C6C6" points="0 0 0 235 0 237 2 237 268 237 270 237 534 237 536 237 536 235 536 0 534 0 534 235 270 235 270 0 268 0 268 235 2 235 2 0"></polygon>
    </g>
</svg>
