<?xml version="1.0" encoding="UTF-8"?>
<svg width="536px" height="237px" viewBox="0 0 536 237" version="1.1" xmlns="http://www.w3.org/2000/svg" xmlns:xlink="http://www.w3.org/1999/xlink">
    <!-- Generator: Sketch 51.3 (57544) - http://www.bohemiancoding.com/sketch -->
    <title>statehouse_mmd_plan_curve</title>
    <desc>Created with Sketch.</desc>
    <defs>
        <linearGradient x1="10.0%" y1="0%" x2="90.0%" y2="0%" id="linearGradient-1">
            <stop stop-color="#CD3952" offset="0%"></stop>
            <stop stop-color="#DFDFDF" offset="50%"></stop>
            <stop stop-color="#0A4FAB" offset="100%"></stop>
        </linearGradient>
    </defs>
    <g id="ushouse_eg_plan_curve" stroke="none" stroke-width="1" fill="none" fill-rule="evenodd">
        <path d="M 0.0 237.0 C 56.1 229.0 63.8 191.1 71.5 188.8 C 79.7 186.5 87.8 228.0 96.0 223.2 C 103.5 218.9 110.9 175.1 118.4 161.3 C 125.8 147.6 133.3 151.6 140.7 140.7 C 148.9 128.7 157.1 105.7 165.3 92.5 C 172.7 80.5 180.2 67.3 187.6 65.0 C 195.0 62.7 202.5 83.3 209.9 78.7 C 217.4 74.2 224.8 46.2 232.3 37.5 C 240.5 27.9 248.6 26.1 256.8 23.7 C 264.3 21.5 271.7 7.6 279.2 23.7 C 286.6 39.8 294.1 115.7 301.5 120.0 C 309.7 124.8 317.9 47.6 326.1 51.2 C 333.5 54.5 341.0 118.9 348.4 140.7 C 355.8 162.5 363.3 165.9 370.7 182.0 C 378.2 198.0 385.6 229.4 393.1 237.0 C 401.3 245.4 409.4 230.1 417.6 230.1 C 425.3 230.1 433.0 235.9 440.7 237.0 L 536.0 237.0 L 0.0 237.0 Z" id="Shape" fill="url(#linearGradient-1)" transform="translate(536 0) scale(-1, 1)"></path>
        <polygon id="Shape" fill="#C6C6C6" points="0 0 0 235 0 237 2 237 268 237 270 237 534 237 536 237 536 235 536 0 534 0 534 235 270 235 270 0 268 0 268 235 2 235 2 0"></polygon>
    </g>
</svg>
