<?xml version="1.0" encoding="UTF-8"?>
<svg width="536px" height="237px" viewBox="0 0 536 237" version="1.1" xmlns="http://www.w3.org/2000/svg" xmlns:xlink="http://www.w3.org/1999/xlink">
    <!-- Generator: Sketch 51.3 (57544) - http://www.bohemiancoding.com/sketch -->
    <title>statesenate_dec2_plan_curve</title>
    <desc>Created with Sketch.</desc>
    <defs>
        <linearGradient x1="5.955882352941174%" y1="0%" x2="85.95588235294117%" y2="0%" id="linearGradient-1">
            <stop stop-color="#CD3952" offset="0%"></stop>
            <stop stop-color="#DFDFDF" offset="50%"></stop>
            <stop stop-color="#0A4FAB" offset="100%"></stop>
        </linearGradient>
    </defs>
    <g id="ushouse_eg_plan_curve" stroke="none" stroke-width="1" fill="none" fill-rule="evenodd">
        <path d="M 0.0 237.0 C -92.9 234.9 -77.9 229.3 -62.9 224.5 C -47.4 219.5 -32.0 212.6 -16.5 207.7 C -1.1 202.8 14.3 198.8 29.8 195.2 C 44.1 191.8 58.5 195.5 72.8 186.8 C 88.2 177.4 103.7 158.2 119.1 140.8 C 133.4 124.7 147.8 95.8 162.1 86.4 C 177.6 76.3 193.0 93.1 208.4 82.3 C 222.8 72.2 237.1 15.6 251.5 23.7 C 266.9 32.4 282.3 106.7 297.8 132.4 C 313.2 158.2 328.7 171.9 344.1 178.4 C 358.4 184.5 372.8 166.1 387.1 170.1 C 402.6 174.4 418.0 196.3 433.4 203.5 C 447.8 210.3 462.1 207.2 476.4 211.9 C 491.9 217.0 507.3 230.6 522.8 232.8 C 537.1 234.8 551.4 224.5 565.8 224.5 C 581.2 224.5 596.7 230.7 612.1 232.8 C 627.1 234.9 642.1 236.3 657.1 237.0 L 536.0 237.0 L 0.0 237.0 Z" id="Shape" fill="url(#linearGradient-1)" transform="translate(536 0) scale(-1, 1)"></path>
        <polygon id="Shape" fill="#C6C6C6" points="0 0 0 235 0 237 2 237 268 237 270 237 534 237 536 237 536 235 536 0 534 0 534 235 270 235 270 0 268 0 268 235 2 235 2 0"></polygon>
    </g>
</svg>
