<?xml version="1.0" encoding="UTF-8"?>
<svg width="536px" height="237px" viewBox="0 0 536 237" version="1.1" xmlns="http://www.w3.org/2000/svg" xmlns:xlink="http://www.w3.org/1999/xlink">
    <!-- Generator: Sketch 51.3 (57544) - http://www.bohemiancoding.com/sketch -->
    <title>statesenate_eg_plan_curve</title>
    <desc>Created with Sketch.</desc>
    <defs>
        <linearGradient x1="10.0%" y1="0%" x2="90.0%" y2="0%" id="linearGradient-1">
            <stop stop-color="#CD3952" offset="0%"></stop>
            <stop stop-color="#DFDFDF" offset="50%"></stop>
            <stop stop-color="#0A4FAB" offset="100%"></stop>
        </linearGradient>
    </defs>
    <g id="ushouse_eg_plan_curve" stroke="none" stroke-width="1" fill="none" fill-rule="evenodd">
        <path d="M 0.0 237.0 C 77.2 231.5 85.8 208.7 94.3 204.2 C 102.9 199.6 111.5 218.8 120.1 209.7 C 128.6 200.5 137.2 169.5 145.8 149.5 C 154.4 129.4 162.9 98.4 171.5 89.3 C 180.1 80.2 188.7 103.0 197.2 94.8 C 205.8 86.6 214.4 52.0 223.0 40.1 C 231.6 28.3 240.1 14.6 248.7 23.7 C 257.3 32.8 265.9 84.8 274.4 94.8 C 283.0 104.8 291.6 78.4 300.2 83.9 C 308.7 89.3 317.3 113.9 325.9 127.6 C 334.5 141.3 343.0 155.9 351.6 165.9 C 360.2 175.9 368.8 184.1 377.3 187.8 C 385.9 191.4 394.5 184.1 403.1 187.8 C 411.6 191.4 420.2 201.4 428.8 209.7 C 437.4 217.9 446.0 233.4 454.5 237.0 C 463.1 240.6 471.7 231.5 480.3 231.5 C 488.8 231.5 497.4 236.1 506.0 237.0 L 536.0 237.0 L 0.0 237.0 Z" id="Shape" fill="url(#linearGradient-1)" transform="translate(536 0) scale(-1, 1)"></path>
        <polygon id="Shape" fill="#C6C6C6" points="0 0 0 235 0 237 2 237 268 237 270 237 534 237 536 237 536 235 536 0 534 0 534 235 270 235 270 0 268 0 268 235 2 235 2 0"></polygon>
    </g>
</svg>
