<?xml version="1.0" encoding="UTF-8"?>
<svg width="536px" height="237px" viewBox="0 0 536 237" version="1.1" xmlns="http://www.w3.org/2000/svg" xmlns:xlink="http://www.w3.org/1999/xlink">
    <!-- Generator: Sketch 51.3 (57544) - http://www.bohemiancoding.com/sketch -->
    <title>statesenate_eg_plan_curve</title>
    <desc>Created with Sketch.</desc>
    <defs>
        <linearGradient x1="10.0%" y1="0%" x2="90.0%" y2="0%" id="linearGradient-1">
            <stop stop-color="#CD3952" offset="0%"></stop>
            <stop stop-color="#DFDFDF" offset="50%"></stop>
            <stop stop-color="#0A4FAB" offset="100%"></stop>
        </linearGradient>
    </defs>
    <g id="ushouse_eg_plan_curve" stroke="none" stroke-width="1" fill="none" fill-rule="evenodd">
        <path d="M 0.0 237.0 C 51.4 235.4 60.6 230.7 69.7 227.5 C 78.6 224.4 87.5 220.4 96.5 218.0 C 105.8 215.6 115.1 227.8 124.4 213.3 C 133.3 199.4 142.2 146.7 151.2 132.7 C 160.4 118.2 169.7 135.2 179.0 128.0 C 188.0 121.0 196.9 107.1 205.8 90.1 C 215.1 72.3 224.4 22.1 233.7 23.7 C 243.0 25.3 252.3 87.5 261.6 99.5 C 270.5 111.2 279.4 87.1 288.4 94.8 C 297.7 102.9 306.9 134.9 316.2 146.9 C 325.2 158.6 334.1 161.3 343.0 165.9 C 352.3 170.7 361.6 170.5 370.9 175.4 C 379.8 180.0 388.8 188.9 397.7 194.3 C 407.0 200.0 416.3 201.3 425.6 208.6 C 434.5 215.5 443.5 233.1 452.4 237.0 C 461.7 241.0 471.0 232.3 480.3 232.3 C 489.4 232.3 498.5 236.2 507.6 237.0 L 536.0 237.0 L 0.0 237.0 Z" id="Shape" fill="url(#linearGradient-1)" transform="translate(536 0) scale(-1, 1)"></path>
        <polygon id="Shape" fill="#C6C6C6" points="0 0 0 235 0 237 2 237 268 237 270 237 534 237 536 237 536 235 536 0 534 0 534 235 270 235 270 0 268 0 268 235 2 235 2 0"></polygon>
    </g>
</svg>
