<?xml version="1.0" encoding="UTF-8"?>
<svg width="536px" height="237px" viewBox="0 0 536 237" version="1.1" xmlns="http://www.w3.org/2000/svg" xmlns:xlink="http://www.w3.org/1999/xlink">
    <!-- Generator: Sketch 51.3 (57544) - http://www.bohemiancoding.com/sketch -->
    <title>statehouse_bias_plan_curve</title>
    <desc>Created with Sketch.</desc>
    <defs>
        <linearGradient x1="10.0%" y1="0%" x2="90.0%" y2="0%" id="linearGradient-1">
            <stop stop-color="#CD3952" offset="0%"></stop>
            <stop stop-color="#DFDFDF" offset="50%"></stop>
            <stop stop-color="#0A4FAB" offset="100%"></stop>
        </linearGradient>
    </defs>
    <g id="ushouse_eg_plan_curve" stroke="none" stroke-width="1" fill="none" fill-rule="evenodd">
        <path d="M 0.0 237.0 C 75.9 234.8 83.0 233.7 90.0 224.1 C 97.2 214.3 104.3 188.5 111.5 178.8 C 118.6 169.1 125.8 171.3 132.9 165.9 C 140.1 160.5 147.2 157.6 154.4 146.5 C 161.2 136.0 167.9 109.7 174.7 101.3 C 181.9 92.4 189.0 107.7 196.2 94.8 C 203.3 81.9 210.5 32.3 217.6 23.7 C 224.8 15.1 231.9 38.8 239.1 43.1 C 246.2 47.4 253.3 48.5 260.5 49.6 C 267.6 50.6 274.8 38.5 281.9 49.6 C 288.7 60.1 295.5 100.5 302.3 114.2 C 309.5 128.6 316.6 127.1 323.7 133.6 C 330.9 140.0 338.0 142.2 345.2 153.0 C 352.3 163.7 359.5 190.7 366.6 198.2 C 373.8 205.8 380.9 192.7 388.1 198.2 C 394.9 203.5 401.6 224.2 408.4 230.5 C 415.5 237.1 422.6 235.9 429.7 237.0 L 536.0 237.0 L 0.0 237.0 Z" id="Shape" fill="url(#linearGradient-1)" transform="translate(536 0) scale(-1, 1)"></path>
        <polygon id="Shape" fill="#C6C6C6" points="0 0 0 235 0 237 2 237 268 237 270 237 534 237 536 237 536 235 536 0 534 0 534 235 270 235 270 0 268 0 268 235 2 235 2 0"></polygon>
    </g>
</svg>
