<?xml version="1.0" encoding="UTF-8"?>
<svg width="536px" height="237px" viewBox="0 0 536 237" version="1.1" xmlns="http://www.w3.org/2000/svg" xmlns:xlink="http://www.w3.org/1999/xlink">
    <!-- Generator: Sketch 51.3 (57544) - http://www.bohemiancoding.com/sketch -->
    <title>statehouse_mmd_plan_curve</title>
    <desc>Created with Sketch.</desc>
    <defs>
        <polygon id="path-1" points="0.55 0.416668 533.45 0.416668 533.45 236.45 0.55 236.45"></polygon>
        <linearGradient x1="0%" y1="86.0978492%" x2="100%" y2="86.0978492%" id="linearGradient-3">
            <stop stop-color="#CD3952" offset="0%"></stop>
            <stop stop-color="#DFDFDF" offset="62.4846276%"></stop>
            <stop stop-color="#0A4FAB" offset="100%"></stop>
        </linearGradient>
    </defs>
    <g id="statehouse_mmd_plan_curve" stroke="none" stroke-width="1" fill="none" fill-rule="evenodd">
        <g id="Clipped" transform="translate(268.000000, 118.500000) scale(-1, 1) translate(-268.000000, -118.500000) translate(1.000000, 0.000000)">
            <mask id="mask-2" fill="white">
                <use xlink:href="#path-1"></use>
            </mask>
            <g id="Shape"></g>
            <path d="M5.482037,212.84668 C5.482037,212.84668 24.08214,235.1387 33.38219,228.5822 C42.68224,222.02573 51.98229,180.06425 61.28234,173.50778 C70.58239,166.9513 79.88245,193.17722 89.1825,189.24333 C98.48254,185.30945 107.7826,165.64 117.08264,149.90445 C126.3827,134.16888 135.68275,101.38647 144.9828,94.83 C154.28285,88.27351 163.5829,107.94296 172.88295,110.56555 C182.183,113.18814 191.48306,113.18814 200.78311,110.56555 C210.08316,107.94296 219.3832,96.1413 228.68326,94.83 C237.9833,93.5187 247.28336,114.49945 256.5834,102.69778 C265.88345,90.89612 275.1835,20.08611 284.48358,24.02 C293.78363,27.95389 303.08368,121.05592 312.38373,126.30112 C321.68378,131.5463 330.98383,60.7363 340.28387,55.49111 C349.58392,50.245926 358.88397,73.84926 368.18402,94.83 C377.48407,115.81075 386.78412,159.08351 396.08417,181.37555 C405.38422,203.6676 423.98434,228.5822 423.98434,228.5822 L423.98434,237 L5.482037,237 L5.482037,212.84668 Z" id="Shape" fill="url(#linearGradient-3)" mask="url(#mask-2)"></path>
        </g>
        <polygon id="Shape" fill="#C6C6C6" points="0 0 0 235 0 237 2 237 268 237 270 237 534 237 536 237 536 235 536 0 534 0 534 235 270 235 270 0 268 0 268 235 2 235 2 0"></polygon>
    </g>
</svg>