<?xml version="1.0" encoding="UTF-8"?>
<svg width="536px" height="237px" viewBox="0 0 536 237" version="1.1" xmlns="http://www.w3.org/2000/svg" xmlns:xlink="http://www.w3.org/1999/xlink">
    <!-- Generator: Sketch 51.3 (57544) - http://www.bohemiancoding.com/sketch -->
    <title>statesenate_eg_plan_curve</title>
    <desc>Created with Sketch.</desc>
    <defs>
        <polygon id="path-1" points="0.55 0.416668 536.45 0.416668 536.45 236.45 0.55 236.45"></polygon>
        <linearGradient x1="0%" y1="80.239739%" x2="93.8399838%" y2="80.239739%" id="linearGradient-3">
            <stop stop-color="#CD3952" offset="0%"></stop>
            <stop stop-color="#DFDFDF" offset="47.0980833%"></stop>
            <stop stop-color="#0A4FAB" offset="100%"></stop>
        </linearGradient>
    </defs>
    <g id="statesenate_eg_plan_curve" stroke="none" stroke-width="1" fill="none" fill-rule="evenodd">
        <g id="Clipped" transform="translate(268.500000, 118.500000) scale(-1, 1) translate(-268.500000, -118.500000) ">
            <mask id="mask-2" fill="white">
                <use xlink:href="#path-1"></use>
            </mask>
            <g id="Shape"></g>
            <path d="M69.72372,217.31216 C69.72372,217.31216 89.76826,222.62823 99.79054,210.9329 C109.8128,199.23755 119.83508,166.27792 129.85735,147.14009 C139.87962,128.00226 149.9019,101.42192 159.92416,96.10585 C169.94644,90.7898 179.96872,128.00226 189.99098,115.2437 C200.01326,102.48514 210.03554,29.12342 220.0578,19.554504 C230.08008,9.98559 240.10236,44.00841 250.12463,57.83018 C260.14688,71.65195 270.16916,96.10585 280.19144,102.48514 C290.2137,108.86441 300.236,89.72658 310.25824,96.10585 C320.28052,102.48514 330.3028,126.93904 340.32507,140.7608 C350.34735,154.58258 360.36963,171.594 370.39188,179.03648 C380.41415,186.47897 390.43643,183.28934 400.4587,185.41577 C410.481,187.54219 420.50327,186.47897 430.5255,191.79504 C440.5478,197.1111 450.57007,209.86966 460.59235,217.31216 C470.6146,224.75467 480.6369,234.32358 490.6592,236.45 C500.68146,238.57642 520.72595,230.0707 520.72595,230.0707 L520.72595,236.45 L69.72372,236.45 L69.72372,217.31216 Z" id="Shape" fill="url(#linearGradient-3)" mask="url(#mask-2)"></path>
        </g>
        <polygon id="Shape" fill="#C6C6C6" points="0 0 0 235 0 237 2 237 268 237 270 237 534 237 536 237 536 235 536 0 534 0 534 235 270 235 270 0 268 0 268 235 2 235 2 0"></polygon>
    </g>
</svg>