<svg width="536" height="237" viewBox="0 0 536 237" fill="none" xmlns="http://www.w3.org/2000/svg">
<rect width="536" height="237" fill="white"/>
<path d="M115 235.459L527.9 234.759L527.5 212.759C527.5 212.759 509.1 236.659 500 229.659C490.9 222.659 481.6 177.659 472.5 170.659C463.3 163.659 454.1 191.759 445 187.559C435.9 183.359 426.6 162.259 417.5 145.459C408.4 128.659 399.1 92.0593 390 86.4593C380.8 80.8593 371.6 106.159 362.5 111.759C353.4 117.359 344.1 121.559 335 120.159C325.8 118.759 316.6 107.559 307.5 103.259C298.3 99.0593 289.1 111.659 280 94.8593C270.9 78.0593 261.6 -2.0407 252.5 2.1593C243.4 6.3593 234.1 113.159 225 120.159C215.9 127.159 206.6 49.9593 197.5 44.2593C188.4 38.5593 179.1 63.9593 170 86.3593C160.9 108.759 151.6 155.159 142.5 179.059C133.4 202.959 115 229.659 115 229.659V235.459Z" fill="url(#paint0_linear)"/>
<path fill-rule="evenodd" clip-rule="evenodd" d="M0 0V235V237H2H268H270H534H536V235V0H534V235H270V0H268V235H2V0H0Z" fill="#C6C6C6"/>
<defs>
<linearGradient id="paint0_linear" x1="523.713" y1="132.053" x2="108.458" y2="132.053" gradientUnits="userSpaceOnUse">
<stop stop-color="#CD3952"/>
<stop offset="0.614583" stop-color="#DFDFDF"/>
<stop offset="1" stop-color="#0A4FAB"/>
</linearGradient>
</defs>
</svg>
