<svg width="536" height="237" viewBox="0 0 536 237" fill="none" xmlns="http://www.w3.org/2000/svg">
<rect width="536" height="237" fill="white"/>
<path d="M68.2 235.449H521V232.449C521 232.449 500.9 213.949 490.8 204.649C480.7 195.349 470.7 180.349 460.6 176.849C450.5 173.349 440.5 196.549 430.4 183.749C420.3 171.049 410.3 116.649 400.2 100.449C390.1 84.2495 380.1 100.449 370 86.5495C359.9 72.6495 349.9 13.6495 339.8 17.1495C329.7 20.6495 319.7 102.749 309.6 107.349C299.5 111.949 289.5 50.6495 279.4 44.8495C269.3 39.0495 259.3 57.5495 249.2 72.6495C239.1 87.6495 229.1 120.049 219 135.149C208.9 150.149 198.9 155.949 188.8 162.949C178.7 169.849 168.7 168.749 158.6 176.849C148.5 184.949 138.5 203.449 128.4 211.549C118.3 219.649 108.3 221.949 98.2 225.449C88.1 228.949 68 232.349 68 232.349V235.449H68.2Z" fill="url(#paint0_linear)"/>
<path fill-rule="evenodd" clip-rule="evenodd" d="M0 0V235V237H2H268H270H534H536V235V0H534V235H270V0H268V235H2V0H0Z" fill="#C6C6C6"/>
<defs>
<linearGradient id="paint0_linear" x1="516.407" y1="138.691" x2="60.8232" y2="138.691" gradientUnits="userSpaceOnUse">
<stop stop-color="#CD3952"/>
<stop offset="0.546875" stop-color="#DFDFDF"/>
<stop offset="1" stop-color="#0A4FAB"/>
</linearGradient>
</defs>
</svg>
