<svg width="536" height="237" viewBox="0 0 536 237" fill="none" xmlns="http://www.w3.org/2000/svg">
<rect width="536" height="237" fill="white"/>
<path d="M71.7 235.536L521 236.036V230.336C521 230.336 501 229.036 491 222.436C481 215.836 471 202.736 461 190.936C451 179.136 441 167.336 431 151.636C421 135.936 411 96.5362 401 96.5362C391 96.5362 381 162.136 371 151.636C361 141.136 351 37.5362 341 33.6362C331 29.7362 321 129.336 311 128.036C301 126.736 291 40.1362 281 25.7362C271 11.3362 261 33.6362 251 41.4362C241 49.3362 231 61.1362 221 72.9362C211 84.7362 201 97.8362 191 112.236C181 126.636 171 146.336 161 159.436C151 172.536 141 184.336 131 190.936C121 197.536 111 192.236 101 198.836C91 205.436 71 230.336 71 230.336L71.7 235.536Z" fill="url(#paint0_linear)"/>
<path fill-rule="evenodd" clip-rule="evenodd" d="M0 0V235V237H2H268H270H534H536V235V0H534V235H270V0H268V235H2V0H0Z" fill="#C6C6C6"/>
<defs>
<linearGradient id="paint0_linear" x1="516.437" y1="140.79" x2="63.8707" y2="140.79" gradientUnits="userSpaceOnUse">
<stop stop-color="#CD3952"/>
<stop offset="0.548952" stop-color="#DFDFDF"/>
<stop offset="1" stop-color="#0A4FAB"/>
</linearGradient>
</defs>
</svg>
