<?xml version="1.0" encoding="UTF-8"?>
<svg width="536px" height="237px" viewBox="0 0 536 237" version="1.1" xmlns="http://www.w3.org/2000/svg" xmlns:xlink="http://www.w3.org/1999/xlink">
    <!-- Generator: Sketch 51.3 (57544) - http://www.bohemiancoding.com/sketch -->
    <title>statesenate_bias_plan_curve</title>
    <desc>Created with Sketch.</desc>
    <defs>
        <polygon id="path-1" points="0.55 0.416668 536.45 0.416668 536.45 236.45 0.55 236.45"></polygon>
        <linearGradient x1="1.51898724%" y1="84.5951022%" x2="98.9860927%" y2="84.5950993%" id="linearGradient-3">
            <stop stop-color="#CD3952" offset="0%"></stop>
            <stop stop-color="#DFDFDF" offset="55.5568006%"></stop>
            <stop stop-color="#0A4FAB" offset="100%"></stop>
        </linearGradient>
    </defs>
    <g id="statesenate_bias_plan_curve" stroke="none" stroke-width="1" fill="none" fill-rule="evenodd">
        <g id="Clipped" transform="translate(268.500000, 118.500000) scale(-1, 1) translate(-268.500000, -118.500000) ">
            <mask id="mask-2" fill="white">
                <use xlink:href="#path-1"></use>
            </mask>
            <g id="Shape"></g>
            <path d="M15.973537,229.50784 C15.973537,229.50784 36.10011,210.99542 46.1634,201.73923 C56.22669,192.483 66.28998,177.44167 76.353264,173.97058 C86.41655,170.49951 96.47984,193.64003 106.54312,180.91275 C116.60641,168.18546 126.6697,113.80522 136.73299,97.60686 C146.79628,81.4085 156.85956,97.60686 166.92285,83.72255 C176.98613,69.83824 187.04942,10.8299 197.11272,14.30098 C207.176,17.77206 217.2393,99.92091 227.30258,104.54903 C237.36588,109.17712 247.42914,47.85474 257.49243,42.06961 C267.55573,36.28448 277.61902,54.7969 287.6823,69.83824 C297.74557,84.87958 307.80887,117.2763 317.87216,132.31764 C327.93546,147.359 337.99875,153.14412 348.062,160.08627 C358.1253,167.02843 368.1886,165.8714 378.2519,173.97058 C388.3152,182.06978 398.37845,200.58218 408.44174,208.68137 C418.50504,216.78055 428.56833,219.0946 438.63162,222.56567 C448.6949,226.03677 468.8215,229.50784 468.8215,229.50784 L468.8215,237 L15.973537,237 L15.973537,229.50784 Z" id="Shape" fill="url(#linearGradient-3)" mask="url(#mask-2)"></path>
        </g>
        <polygon id="Shape" fill="#C6C6C6" points="0 0 0 235 0 237 2 237 268 237 270 237 534 237 536 237 536 235 536 0 534 0 534 235 270 235 270 0 268 0 268 235 2 235 2 0"></polygon>
    </g>
</svg>