<?xml version="1.0" encoding="UTF-8"?>
<svg width="536px" height="237px" viewBox="0 0 536 237" version="1.1" xmlns="http://www.w3.org/2000/svg" xmlns:xlink="http://www.w3.org/1999/xlink">
    <!-- Generator: Sketch 51.3 (57544) - http://www.bohemiancoding.com/sketch -->
    <title>statehouse_dec2_plan_curve</title>
    <desc>Created with Sketch.</desc>
    <defs>
        <linearGradient x1="0.22368421052631504%" y1="0%" x2="80.22368421052632%" y2="0%" id="linearGradient-1">
            <stop stop-color="#CD3952" offset="0%"></stop>
            <stop stop-color="#DFDFDF" offset="50%"></stop>
            <stop stop-color="#0A4FAB" offset="100%"></stop>
        </linearGradient>
    </defs>
    <g id="ushouse_eg_plan_curve" stroke="none" stroke-width="1" fill="none" fill-rule="evenodd">
        <path d="M 0.0 237.0 C -104.1 232.9 -86.6 215.8 -69.2 212.4 C -51.7 209.0 -34.3 220.6 -16.9 216.5 C 0.7 212.4 18.2 201.5 35.7 187.8 C 53.2 174.1 70.6 151.5 88.0 134.5 C 105.4 117.4 122.9 94.8 140.3 85.2 C 157.8 75.6 175.4 87.3 192.9 77.0 C 210.3 66.8 227.7 19.6 245.2 23.7 C 262.6 27.8 280.0 80.5 297.4 101.6 C 315.0 122.9 332.5 137.1 350.1 150.9 C 367.5 164.5 384.9 174.8 402.3 183.7 C 419.8 192.6 437.2 196.7 454.6 204.2 C 472.1 211.7 489.7 226.1 507.2 228.8 C 524.6 231.5 542.1 221.3 559.5 220.6 C 576.9 219.9 594.3 222.0 611.8 224.7 C 629.3 227.4 646.8 235.6 664.4 237.0 C 681.8 238.4 699.2 232.9 716.7 232.9 C 734.1 232.9 751.6 236.3 769.0 237.0 L 536.0 237.0 L 0.0 237.0 Z" id="Shape" fill="url(#linearGradient-1)" transform="translate(536 0) scale(-1, 1)"></path>
        <polygon id="Shape" fill="#C6C6C6" points="0 0 0 235 0 237 2 237 268 237 270 237 534 237 536 237 536 235 536 0 534 0 534 235 270 235 270 0 268 0 268 235 2 235 2 0"></polygon>
    </g>
</svg>
