<?xml version="1.0" encoding="UTF-8"?>
<svg width="536px" height="237px" viewBox="0 0 536 237" version="1.1" xmlns="http://www.w3.org/2000/svg" xmlns:xlink="http://www.w3.org/1999/xlink">
    <!-- Generator: Sketch 51.3 (57544) - http://www.bohemiancoding.com/sketch -->
    <title>ushouse_bias_plan_curve</title>
    <desc>Created with Sketch.</desc>
    <defs>
        <linearGradient x1="10.0%" y1="0%" x2="90.0%" y2="0%" id="linearGradient-1">
            <stop stop-color="#CD3952" offset="0%"></stop>
            <stop stop-color="#DFDFDF" offset="50%"></stop>
            <stop stop-color="#0A4FAB" offset="100%"></stop>
        </linearGradient>
    </defs>
    <g id="ushouse_eg_plan_curve" stroke="none" stroke-width="1" fill="none" fill-rule="evenodd">
        <path d="M 0.0 237.0 C -14.8 229.6 -4.7 198.5 5.4 192.6 C 15.4 186.7 25.4 198.5 35.4 201.4 C 45.7 204.5 56.1 223.9 66.5 210.3 C 76.5 197.2 86.5 128.9 96.5 121.5 C 106.5 114.1 116.5 162.9 126.5 165.9 C 136.5 168.9 146.5 148.1 156.5 139.2 C 166.5 130.3 176.5 116.9 186.5 112.6 C 196.9 108.1 207.3 126.1 217.6 112.6 C 227.6 99.5 237.6 47.4 247.6 32.6 C 257.6 17.8 267.6 14.8 277.6 23.7 C 287.7 32.6 297.7 68.1 307.7 85.9 C 317.7 103.7 327.7 115.5 337.7 130.3 C 347.7 145.2 357.7 166.1 367.7 174.8 C 378.1 183.8 388.4 179.2 398.8 183.7 C 408.8 188.0 418.8 194.0 428.8 201.4 C 438.8 208.9 448.8 222.2 458.8 228.1 C 468.9 234.1 479.0 235.5 489.0 237.0 L 536.0 237.0 L 0.0 237.0 Z" id="Shape" fill="url(#linearGradient-1)" transform="translate(536 0) scale(-1, 1)"></path>
        <polygon id="Shape" fill="#C6C6C6" points="0 0 0 235 0 237 2 237 268 237 270 237 534 237 536 237 536 235 536 0 534 0 534 235 270 235 270 0 268 0 268 235 2 235 2 0"></polygon>
    </g>
</svg>
