<?xml version="1.0" encoding="UTF-8"?>
<svg width="536px" height="237px" viewBox="0 0 536 237" version="1.1" xmlns="http://www.w3.org/2000/svg" xmlns:xlink="http://www.w3.org/1999/xlink">
    <!-- Generator: Sketch 51.3 (57544) - http://www.bohemiancoding.com/sketch -->
    <title>ushouse_eg_plan_curve</title>
    <desc>Created with Sketch.</desc>
    <defs>
        <linearGradient x1="10.0%" y1="0%" x2="90.0%" y2="0%" id="linearGradient-1">
            <stop stop-color="#CD3952" offset="0%"></stop>
            <stop stop-color="#DFDFDF" offset="50%"></stop>
            <stop stop-color="#0A4FAB" offset="100%"></stop>
        </linearGradient>
    </defs>
    <g id="ushouse_eg_plan_curve" stroke="none" stroke-width="1" fill="none" fill-rule="evenodd">
        <path d="M 0.0 237.0 C -11.8 235.6 -1.1 232.9 9.6 228.8 C 20.4 224.7 31.1 215.1 41.8 212.4 C 52.5 209.7 63.2 211.0 74.0 212.4 C 84.7 213.8 95.4 223.3 106.1 220.6 C 116.8 217.9 127.6 220.6 138.3 196.0 C 149.0 171.4 159.7 90.7 170.4 72.9 C 181.2 55.1 191.9 96.2 202.6 89.3 C 213.3 82.5 224.0 42.8 234.8 31.9 C 245.5 21.0 256.2 19.6 266.9 23.7 C 277.6 27.8 288.4 38.7 299.1 56.5 C 309.8 74.3 320.5 118.0 331.2 130.3 C 342.0 142.7 352.7 124.9 363.4 130.3 C 374.1 135.8 384.8 150.9 395.6 163.2 C 406.3 175.5 417.0 193.2 427.7 204.2 C 438.4 215.1 449.2 224.7 459.9 228.8 C 470.6 232.9 481.3 227.4 492.0 228.8 C 502.8 230.2 513.5 235.6 524.2 237.0 L 536.0 237.0 L 0.0 237.0 Z" id="Shape" fill="url(#linearGradient-1)" transform="translate(536 0) scale(-1, 1)"></path>
        <polygon id="Shape" fill="#C6C6C6" points="0 0 0 235 0 237 2 237 268 237 270 237 534 237 536 237 536 235 536 0 534 0 534 235 270 235 270 0 268 0 268 235 2 235 2 0"></polygon>
    </g>
</svg>
