<?xml version="1.0" encoding="UTF-8"?>
<svg width="536px" height="237px" viewBox="0 0 536 237" version="1.1" xmlns="http://www.w3.org/2000/svg" xmlns:xlink="http://www.w3.org/1999/xlink">
    <!-- Generator: Sketch 51.3 (57544) - http://www.bohemiancoding.com/sketch -->
    <title>ushouse_mmd_plan_curve</title>
    <desc>Created with Sketch.</desc>
    <defs>
        <polygon id="path-1" points="0.55 0.416668 526.45 0.416668 526.45 236.45 0.55 236.45"></polygon>
        <linearGradient x1="0.798431647%" y1="84.9007827%" x2="100%" y2="84.9007806%" id="linearGradient-3">
            <stop stop-color="#CD3952" offset="0%"></stop>
            <stop stop-color="#DFDFDF" offset="55.5993311%"></stop>
            <stop stop-color="#0A4FAB" offset="100%"></stop>
        </linearGradient>
    </defs>
    <g id="ushouse_mmd_plan_curve" stroke="none" stroke-width="1" fill="none" fill-rule="evenodd">
        <g id="Clipped" transform="translate(268.500000, 118.500000) scale(-1, 1) translate(-268.500000, -118.500000) translate(5.000000, 0.000000)">
            <mask id="mask-2" fill="white">
                <use xlink:href="#path-1"></use>
            </mask>
            <g id="Shape"></g>
            <path d="M10.38832,227.70804 C10.38832,227.70804 30.51304,237.90698 40.5754,227.70804 C50.637764,217.50906 60.70012,175.25618 70.76248,166.51419 C80.82484,157.77222 90.8872,175.25618 100.94955,175.25618 C111.01192,175.25618 121.07428,176.71317 131.13664,166.51419 C141.199,156.31523 151.26135,115.51935 161.32372,114.06235 C171.38608,112.60535 181.44844,151.94424 191.5108,157.77222 C201.57315,163.6002 211.63553,154.85823 221.69788,149.03024 C231.76022,143.20227 241.8226,135.91728 251.88495,122.80432 C261.94733,109.69136 272.00967,76.18045 282.07205,70.35246 C292.1344,64.52448 302.19675,73.26646 312.25912,87.83643 C322.32147,102.40637 332.38385,146.11626 342.4462,157.77222 C352.50854,169.42819 362.57092,154.85823 372.63327,157.77222 C382.69565,160.68622 392.758,169.42819 402.82034,175.25618 C412.88272,181.08415 422.94507,183.99815 433.00745,192.74013 C443.0698,201.4821 463.1945,227.70804 463.1945,227.70804 L463.1945,237 L10.38832,237 L10.38832,227.70804 Z" id="Shape" fill="url(#linearGradient-3)" mask="url(#mask-2)"></path>
        </g>
        <polygon id="Shape" fill="#C6C6C6" points="0 0 0 235 0 237 2 237 268 237 270 237 534 237 536 237 536 235 536 0 534 0 534 235 270 235 270 0 268 0 268 235 2 235 2 0"></polygon>
    </g>
</svg>