<?xml version="1.0" encoding="UTF-8"?>
<svg width="536px" height="237px" viewBox="0 0 536 237" version="1.1" xmlns="http://www.w3.org/2000/svg" xmlns:xlink="http://www.w3.org/1999/xlink">
    <!-- Generator: Sketch 51.3 (57544) - http://www.bohemiancoding.com/sketch -->
    <title>ushouse_bias_plan_curve</title>
    <desc>Created with Sketch.</desc>
    <defs>
        <linearGradient x1="10.0%" y1="0%" x2="90.0%" y2="0%" id="linearGradient-1">
            <stop stop-color="#CD3952" offset="0%"></stop>
            <stop stop-color="#DFDFDF" offset="50%"></stop>
            <stop stop-color="#0A4FAB" offset="100%"></stop>
        </linearGradient>
    </defs>
    <g id="ushouse_eg_plan_curve" stroke="none" stroke-width="1" fill="none" fill-rule="evenodd">
        <path d="M 0.0 237.0 C -14.8 231.1 -4.7 207.4 5.4 201.4 C 15.4 195.5 25.4 200.0 35.4 201.4 C 45.7 203.0 56.1 217.9 66.5 210.3 C 76.5 203.1 86.5 167.4 96.5 157.0 C 106.5 146.6 116.5 152.6 126.5 148.1 C 136.5 143.7 146.5 133.3 156.5 130.3 C 166.5 127.4 176.5 134.7 186.5 130.3 C 196.9 125.8 207.3 120.3 217.6 103.7 C 227.6 87.7 237.6 45.9 247.6 32.6 C 257.6 19.3 267.6 13.3 277.6 23.7 C 287.7 34.1 297.7 75.5 307.7 94.8 C 317.7 114.1 327.7 125.9 337.7 139.2 C 347.7 152.6 357.7 167.5 367.7 174.8 C 378.1 182.3 388.4 180.7 398.8 183.7 C 408.8 186.6 418.8 185.2 428.8 192.6 C 438.8 200.0 448.8 220.7 458.8 228.1 C 468.9 235.5 479.0 235.5 489.0 237.0 L 536.0 237.0 L 0.0 237.0 Z" id="Shape" fill="url(#linearGradient-1)" transform="translate(536 0) scale(-1, 1)"></path>
        <polygon id="Shape" fill="#C6C6C6" points="0 0 0 235 0 237 2 237 268 237 270 237 534 237 536 237 536 235 536 0 534 0 534 235 270 235 270 0 268 0 268 235 2 235 2 0"></polygon>
    </g>
</svg>
