<?xml version="1.0" encoding="UTF-8"?>
<svg width="536px" height="237px" viewBox="0 0 536 237" version="1.1" xmlns="http://www.w3.org/2000/svg" xmlns:xlink="http://www.w3.org/1999/xlink">
    <!-- Generator: Sketch 51.3 (57544) - http://www.bohemiancoding.com/sketch -->
    <title>ushouse_dec2_plan_curve</title>
    <desc>Created with Sketch.</desc>
    <defs>
        <linearGradient x1="7.038327526132406%" y1="0%" x2="87.0383275261324%" y2="0%" id="linearGradient-1">
            <stop stop-color="#CD3952" offset="0%"></stop>
            <stop stop-color="#DFDFDF" offset="50%"></stop>
            <stop stop-color="#0A4FAB" offset="100%"></stop>
        </linearGradient>
    </defs>
    <g id="ushouse_eg_plan_curve" stroke="none" stroke-width="1" fill="none" fill-rule="evenodd">
        <path d="M 0.0 237.0 C 18.3 230.2 29.3 201.4 40.4 196.0 C 51.4 190.5 62.4 205.6 73.5 204.2 C 84.5 202.8 95.5 205.6 106.5 187.8 C 117.6 170.0 128.6 105.7 139.6 97.5 C 150.7 89.3 161.7 139.9 172.7 138.6 C 183.7 137.2 194.8 108.5 205.8 89.3 C 216.8 70.2 227.9 33.3 238.9 23.7 C 249.9 14.1 260.9 27.8 272.0 31.9 C 283.0 36.0 294.0 27.8 305.1 48.3 C 316.1 68.8 327.1 126.2 338.1 155.0 C 349.2 183.7 360.2 211.0 371.2 220.6 C 382.3 230.2 393.3 215.1 404.3 212.4 C 415.3 209.7 426.4 202.8 437.4 204.2 C 448.4 205.6 459.5 216.5 470.5 220.6 C 481.5 224.7 492.5 227.4 503.6 228.8 C 514.6 230.2 525.6 227.4 536.7 228.8 C 547.7 230.2 558.7 235.6 569.7 237.0 L 536.0 237.0 L 0.0 237.0 Z" id="Shape" fill="url(#linearGradient-1)" transform="translate(536 0) scale(-1, 1)"></path>
        <polygon id="Shape" fill="#C6C6C6" points="0 0 0 235 0 237 2 237 268 237 270 237 534 237 536 237 536 235 536 0 534 0 534 235 270 235 270 0 268 0 268 235 2 235 2 0"></polygon>
    </g>
</svg>
