<?xml version="1.0" encoding="UTF-8"?>
<svg width="536px" height="237px" viewBox="0 0 536 237" version="1.1" xmlns="http://www.w3.org/2000/svg" xmlns:xlink="http://www.w3.org/1999/xlink">
    <!-- Generator: Sketch 51.3 (57544) - http://www.bohemiancoding.com/sketch -->
    <title>ushouse_eg_plan_curve</title>
    <desc>Created with Sketch.</desc>
    <defs>
        <polygon id="path-1" points="0.55 0.416668 536.45 0.416668 536.45 236.45 0.55 236.45"></polygon>
        <linearGradient x1="0%" y1="63.5150835%" x2="100%" y2="63.5150835%" id="linearGradient-3">
            <stop stop-color="#CD3952" offset="0%"></stop>
            <stop stop-color="#DFDFDF" offset="56.1431387%"></stop>
            <stop stop-color="#0A4FAB" offset="100%"></stop>
        </linearGradient>
    </defs>
    <g id="ushouse_eg_plan_curve" stroke="none" stroke-width="1" fill="none" fill-rule="evenodd">
        <g id="Clipped" transform="translate(267.500000, 118.500000) scale(-1, 1) translate(-267.500000, -118.500000) translate(-1.000000, 0.000000)">
            <mask id="mask-2" fill="white">
                <use xlink:href="#path-1"></use>
            </mask>
            <g id="Shape"></g>
            <path d="M10.174313,227.70804 C10.174313,227.70804 30.476006,220.42303 40.626854,218.96606 C50.777695,217.50906 60.92854,217.50906 71.07939,218.96606 C81.23023,220.42303 91.38109,230.622 101.53192,227.70804 C111.68277,224.79404 121.83362,213.13806 131.98447,201.4821 C142.13531,189.82613 152.28616,173.79918 162.437,157.77222 C172.58784,141.74527 182.7387,112.60535 192.88954,105.32037 C203.04039,98.03539 213.19122,128.63231 223.34207,114.06235 C233.49292,99.49239 243.64377,26.64259 253.79462,17.90062 C263.94547,9.158646 274.0963,48.49753 284.24716,61.6105 C294.398,74.72345 304.54886,82.00844 314.6997,96.5784 C324.85056,111.14836 335.00137,138.83127 345.15222,149.03024 C355.30307,159.22922 365.45392,154.85823 375.60477,157.77222 C385.7556,160.68622 395.90646,154.85823 406.0573,166.51419 C416.20816,178.17017 426.359,217.50906 436.50986,227.70804 C446.6607,237.90698 466.96237,227.70804 466.96237,227.70804 L466.96237,237 L10.174313,237 L10.174313,227.70804 Z" id="Shape" fill="url(#linearGradient-3)" mask="url(#mask-2)"></path>
        </g>
        <polygon id="Shape" fill="#C6C6C6" points="0 0 0 235 0 237 2 237 268 237 270 237 534 237 536 237 536 235 536 0 534 0 534 235 270 235 270 0 268 0 268 235 2 235 2 0"></polygon>
    </g>
</svg>