<svg width="536" height="237" viewBox="0 0 536 237" fill="none" xmlns="http://www.w3.org/2000/svg">
<rect width="536" height="237" fill="white"/>
<path d="M63.6 236.769L520.5 235.169V226.169C520.5 226.169 500.2 218.869 490 217.469C479.8 215.969 469.7 215.969 459.5 217.469C449.3 218.969 439.2 229.169 429 226.169C418.8 223.269 408.7 211.569 398.5 199.969C388.3 188.269 378.2 172.269 368 156.269C357.8 140.269 347.7 111.069 337.5 103.769C327.3 96.4687 317.2 127.069 307 112.469C296.8 97.8687 286.7 25.0687 276.5 16.2687C266.3 7.46867 256.2 46.8687 246 59.9687C235.8 73.0687 225.7 80.3687 215.5 94.9687C205.3 109.569 195.2 137.269 185 147.469C174.8 157.669 164.7 153.269 154.5 156.169C144.3 159.069 134.2 153.269 124 164.869C113.8 176.569 103.7 215.869 93.5 226.069C83.3 236.269 63 226.069 63 226.069L63.6 236.769Z" fill="url(#paint0_linear)"/>
<path fill-rule="evenodd" clip-rule="evenodd" d="M0 0V235V237H2H268H270H534H536V235V0H534V235H270V0H268V235H2V0H0Z" fill="#C6C6C6"/>
<defs>
<linearGradient id="paint0_linear" x1="515.861" y1="138.54" x2="55.7519" y2="138.54" gradientUnits="userSpaceOnUse">
<stop stop-color="#CD3952"/>
<stop offset="0.545873" stop-color="#DFDFDF"/>
<stop offset="1" stop-color="#0A4FAB"/>
</linearGradient>
</defs>
</svg>
