<?xml version="1.0" encoding="UTF-8"?>
<svg width="536px" height="237px" viewBox="0 0 536 237" version="1.1" xmlns="http://www.w3.org/2000/svg" xmlns:xlink="http://www.w3.org/1999/xlink">
    <!-- Generator: Sketch 51.3 (57544) - http://www.bohemiancoding.com/sketch -->
    <title>ushouse_eg_plan_curve</title>
    <desc>Created with Sketch.</desc>
    <defs>
        <linearGradient x1="10.0%" y1="0%" x2="90.0%" y2="0%" id="linearGradient-1">
            <stop stop-color="#CD3952" offset="0%"></stop>
            <stop stop-color="#DFDFDF" offset="50%"></stop>
            <stop stop-color="#0A4FAB" offset="100%"></stop>
        </linearGradient>
    </defs>
    <g id="ushouse_eg_plan_curve" stroke="none" stroke-width="1" fill="none" fill-rule="evenodd">
        <path d="M 0.0 237.0 C -11.5 235.7 -0.9 231.9 9.6 229.4 C 20.0 226.9 30.4 224.3 40.7 221.8 C 51.5 219.2 62.2 214.1 72.9 214.1 C 83.3 214.1 93.6 224.3 104.0 221.8 C 114.7 219.2 125.4 212.9 136.1 198.9 C 146.9 184.9 157.6 157.3 168.3 138.0 C 178.7 119.2 189.0 94.6 199.4 84.6 C 210.1 74.3 220.8 87.4 231.6 77.0 C 241.9 67.0 252.3 31.2 262.6 23.7 C 273.4 16.0 284.1 9.4 294.8 31.3 C 305.2 52.5 315.5 134.5 325.9 153.2 C 336.6 172.6 347.3 145.6 358.0 145.6 C 368.4 145.6 378.8 143.2 389.1 153.2 C 399.9 163.5 410.6 193.6 421.3 206.5 C 431.7 219.0 442.0 225.6 452.4 229.4 C 463.1 233.3 473.8 228.1 484.5 229.4 C 495.1 230.6 505.7 235.7 516.2 237.0 L 536.0 237.0 L 0.0 237.0 Z" id="Shape" fill="url(#linearGradient-1)" transform="translate(536 0) scale(-1, 1)"></path>
        <polygon id="Shape" fill="#C6C6C6" points="0 0 0 235 0 237 2 237 268 237 270 237 534 237 536 237 536 235 536 0 534 0 534 235 270 235 270 0 268 0 268 235 2 235 2 0"></polygon>
    </g>
</svg>
