<?xml version="1.0" encoding="UTF-8"?>
<svg width="536px" height="237px" viewBox="0 0 536 237" version="1.1" xmlns="http://www.w3.org/2000/svg" xmlns:xlink="http://www.w3.org/1999/xlink">
    <!-- Generator: Sketch 51.3 (57544) - http://www.bohemiancoding.com/sketch -->
    <title>ushouse_mmd_plan_curve</title>
    <desc>Created with Sketch.</desc>
    <defs>
        <linearGradient x1="10.0%" y1="0%" x2="90.0%" y2="0%" id="linearGradient-1">
            <stop stop-color="#CD3952" offset="0%"></stop>
            <stop stop-color="#DFDFDF" offset="50%"></stop>
            <stop stop-color="#0A4FAB" offset="100%"></stop>
        </linearGradient>
    </defs>
    <g id="ushouse_eg_plan_curve" stroke="none" stroke-width="1" fill="none" fill-rule="evenodd">
        <path d="M 0.0 237.0 C -11.6 233.8 -1.3 220.8 8.9 217.6 C 19.4 214.4 29.8 232.2 40.2 217.6 C 50.6 203.1 61.0 140.0 71.5 130.3 C 81.9 120.7 92.3 157.8 102.7 159.4 C 113.2 161.1 123.6 158.5 134.0 140.0 C 143.7 122.9 153.4 59.0 163.0 52.8 C 173.5 46.1 183.9 90.0 194.3 101.3 C 204.7 112.6 215.1 127.1 225.6 120.7 C 236.0 114.2 246.4 79.2 256.8 62.5 C 266.5 46.9 276.2 20.6 285.9 23.7 C 296.3 27.1 306.7 62.5 317.1 81.9 C 327.6 101.3 338.0 127.1 348.4 140.0 C 358.8 153.0 369.2 156.2 379.7 159.4 C 390.1 162.7 400.5 154.4 410.9 159.4 C 420.6 164.1 430.3 177.6 440.0 188.5 C 450.4 200.3 460.8 219.2 471.2 227.3 C 481.5 235.3 491.8 235.4 502.1 237.0 L 536.0 237.0 L 0.0 237.0 Z" id="Shape" fill="url(#linearGradient-1)" transform="translate(536 0) scale(-1, 1)"></path>
        <polygon id="Shape" fill="#C6C6C6" points="0 0 0 235 0 237 2 237 268 237 270 237 534 237 536 237 536 235 536 0 534 0 534 235 270 235 270 0 268 0 268 235 2 235 2 0"></polygon>
    </g>
</svg>
