<svg width="536" height="237" viewBox="0 0 536 237" fill="none" xmlns="http://www.w3.org/2000/svg">
<rect width="536" height="237" fill="white"/>
<path d="M68.2 235.216H521V225.216C521 225.216 500.9 235.416 490.8 225.216C480.7 215.016 470.7 172.716 460.6 164.016C450.5 155.316 440.5 172.716 430.4 172.716C420.3 172.716 410.3 174.216 400.2 164.016C390.1 153.816 380.1 113.016 370 111.516C359.9 110.016 349.9 149.416 339.8 155.216C329.7 161.016 319.7 152.316 309.6 146.516C299.5 140.716 289.5 133.416 279.4 120.316C269.3 107.216 259.3 73.7158 249.2 67.8158C239.1 62.0158 229.1 70.7158 219 85.3158C208.9 99.9158 198.9 143.616 188.8 155.216C178.7 166.916 168.7 152.316 158.6 155.216C148.5 158.116 138.5 166.916 128.4 172.716C118.3 178.516 108.3 181.416 98.2 190.216C88.1 198.916 68 225.216 68 225.216V235.216H68.2Z" fill="url(#paint0_linear)"/>
<path fill-rule="evenodd" clip-rule="evenodd" d="M0 0V235V237H2H268H270H534H536V235V0H534V235H270V0H268V235H2V0H0Z" fill="#C6C6C6"/>
<defs>
<linearGradient id="paint0_linear" x1="516.407" y1="160.265" x2="60.8232" y2="160.265" gradientUnits="userSpaceOnUse">
<stop stop-color="#CD3952"/>
<stop offset="0.546567" stop-color="#DFDFDF"/>
<stop offset="1" stop-color="#0A4FAB"/>
</linearGradient>
</defs>
</svg>
