<?xml version="1.0" encoding="UTF-8"?>
<svg width="536px" height="237px" viewBox="0 0 536 237" version="1.1" xmlns="http://www.w3.org/2000/svg" xmlns:xlink="http://www.w3.org/1999/xlink">
    <!-- Generator: Sketch 51.3 (57544) - http://www.bohemiancoding.com/sketch -->
    <title>ushouse_bias_plan_curve</title>
    <desc>Created with Sketch.</desc>
    <defs>
        <polygon id="path-1" points="0.55 0.416668 536.45 0.416668 536.45 236.45 0.55 236.45"></polygon>
        <linearGradient x1="0%" y1="79.2196404%" x2="100%" y2="79.2196404%" id="linearGradient-3">
            <stop stop-color="#CD3952" offset="0%"></stop>
            <stop stop-color="#DFDFDF" offset="57.5428727%"></stop>
            <stop stop-color="#0A4FAB" offset="100%"></stop>
        </linearGradient>
    </defs>
    <g id="ushouse_bias_plan_curve" stroke="none" stroke-width="1" fill="none" fill-rule="evenodd">
        <g id="Clipped" transform="translate(267.500000, 118.500000) scale(-1, 1) translate(-267.500000, -118.500000) translate(-1.000000, 0.000000)">
            <mask id="mask-2" fill="white">
                <use xlink:href="#path-1"></use>
            </mask>
            <g id="Shape"></g>
            <path d="M6.17133,210.22406 C6.17133,210.22406 26.31095,200.02512 36.38077,201.4821 C46.45058,202.9391 56.52039,220.42303 66.5902,218.96606 C76.66001,217.50906 86.72983,200.02512 96.79964,192.74013 C106.86945,185.45514 116.93927,182.54115 127.00908,175.25618 C137.07889,167.97119 147.1487,154.85823 157.2185,149.03024 C167.28833,143.20227 177.35814,141.74527 187.42795,140.28827 C197.49776,138.83127 207.56757,151.94424 217.6374,140.28827 C227.70718,128.63231 237.777,87.83643 247.84683,70.35246 C257.91663,52.868515 267.98645,31.01358 278.05624,35.38457 C288.12607,39.755554 298.1959,76.18045 308.2657,96.5784 C318.3355,116.97633 328.40533,144.65926 338.47513,157.77222 C348.54495,170.88518 358.61475,170.88518 368.68457,175.25618 C378.7544,179.62717 388.8242,179.62717 398.894,183.99815 C408.9638,188.36914 419.03363,194.1971 429.10345,201.4821 C439.17325,208.7671 459.31287,227.70804 459.31287,227.70804 L459.31287,237 L6.17133,237 L6.17133,210.22406 Z" id="Shape" fill="url(#linearGradient-3)" mask="url(#mask-2)"></path>
        </g>
        <polygon id="Shape" fill="#C6C6C6" points="0 0 0 235 0 237 2 237 268 237 270 237 534 237 536 237 536 235 536 0 534 0 534 235 270 235 270 0 268 0 268 235 2 235 2 0"></polygon>
    </g>
</svg>